<?xml version="1.0" encoding="UTF-8"?>
<svg id="Layer_2" data-name="Layer 2" xmlns="http://www.w3.org/2000/svg" xmlns:xlink="http://www.w3.org/1999/xlink" viewBox="0 0 2328.38 2328.38">
  <defs>
    <style>
      .cls-1 {
        fill: url(#linear-gradient);
      }

      .cls-1, .cls-2 {
        stroke-width: 0px;
      }

      .cls-2 {
        fill: #f4f4f5;
      }
    </style>
    <linearGradient id="linear-gradient" x1="1491.04" y1="598.08" x2="855.27" y2="1699.26" gradientUnits="userSpaceOnUse">
      <stop offset="0" stop-color="#114c98"/>
      <stop offset=".17" stop-color="#10478e"/>
      <stop offset=".45" stop-color="#0e3a75"/>
      <stop offset=".81" stop-color="#0a264c"/>
      <stop offset=".98" stop-color="#091c36"/>
    </linearGradient>
  </defs>
  <g id="Layer_1-2" data-name="Layer 1">
    <rect class="cls-2" x="0" width="2328.38" height="2328.38" rx="487.04" ry="487.04"/>
    <path class="cls-1" d="m1276.72,1164.19l364.01-364.01c31.07-31.07,31.07-81.45,0-112.52h0c-31.07-31.07-81.45-31.07-112.52,0l-364.01,364.01-364.01-364.01c-31.07-31.07-81.45-31.07-112.52,0h0c-31.07,31.07-31.07,81.45,0,112.53l364.01,364.01-364.01,364.01c-31.07,31.07-31.07,81.45,0,112.52h0c31.07,31.07,81.45,31.07,112.52,0l364.01-364.01,364.01,364.01c31.07,31.07,81.45,31.07,112.52,0h0c31.07-31.07,31.07-81.45,0-112.52l-364.01-364.01Z"/>
  </g>
</svg>