<?xml version="1.0" encoding="UTF-8"?>
<svg id="Layer_2" data-name="Layer 2" xmlns="http://www.w3.org/2000/svg" viewBox="0 0 2878.34 1840.12">
  <defs>
    <style>
      .cls-1 {
        fill: #f4f4f5;
        stroke-width: 0px;
      }
    </style>
  </defs>
  <g id="Layer_1-2" data-name="Layer 1">
    <path class="cls-1" d="m1440.22.08c417.56,0,835.11,0,1252.67,0,4.99,0,9.99-.07,14.98.08,7.74.24,13.25,3.94,16.18,11.15,2.98,7.33,1.11,13.76-4.36,19.14-3.2,3.14-6.72,5.97-10.17,8.84-114.11,94.75-228.23,189.49-342.35,284.22-114.5,95.06-229.01,190.11-343.51,285.17-114.88,95.38-229.75,190.78-344.64,286.16-66.86,55.5-133.76,110.95-200.58,166.51-8.17,6.79-16.7,12.59-27.38,14.6-17.74,3.33-33.62-.35-47.61-12.01-22.63-18.87-45.36-37.62-68.03-56.44-116.04-96.33-232.09-192.66-348.12-289.01-108.73-90.29-217.44-180.6-326.17-270.89-119.87-99.54-239.76-199.05-359.65-298.58-44.19-36.68-88.38-73.36-132.55-110.06-3.84-3.19-7.85-6.27-11.19-9.93-4.25-4.66-5.95-10.18-3.62-16.59,2.44-6.74,7.08-10.91,13.99-12.01,4.39-.7,8.97-.34,13.46-.34,113.88-.01,227.76-.01,341.64-.01,305.67,0,611.35,0,917.02,0Zm1247.96,1839.98c5,0,9.99.01,14.99-.02,2-.01,4.02.08,5.98-.22,7.5-1.15,12.86-5,15.38-12.42,2.36-6.97.31-12.82-4.6-17.77-2.8-2.83-6-5.27-9.08-7.82-68.01-56.49-136.03-112.97-204.05-169.44-114.52-95.08-229.06-190.14-343.58-285.23-113.75-94.45-227.49-188.91-341.26-283.34-4.22-3.5-8.49-7.07-13.19-9.85-25.99-15.38-52.01-15.19-77.76.66-3.81,2.34-7.31,5.23-10.76,8.1-66.1,54.88-132.17,109.8-198.24,164.71-13.45,11.17-26.74,22.54-40.37,33.47-17.92,14.37-38.12,18.93-60.47,12.85-11.36-3.09-20.54-9.83-29.44-17.24-77.17-64.23-154.4-128.37-231.64-192.51-3.84-3.19-7.79-6.26-11.9-9.09-23.6-16.29-56.73-16.18-80.3.33-4.49,3.15-8.75,6.64-12.99,10.13-14.25,11.77-28.42,23.63-42.64,35.43-132.6,110.06-265.21,220.11-397.8,330.18-146.04,121.23-292.07,242.48-438.1,363.73-5.76,4.79-11.69,9.41-17.13,14.54-5.47,5.14-7.86,11.4-4.84,18.97,2.91,7.29,8.43,11.03,15.96,11.64,5.46.44,10.98.19,16.48.19,417.14,0,834.28,0,1251.42,0s833.28,0,1249.93,0Zm190.14-1293.02c0-131.87,0-263.74-.01-395.61,0-4.99.23-10.04-.39-14.96-1.02-8.14-6.55-13.49-14.56-14.98-5.32-.99-9.91.9-13.94,4.01-5.93,4.57-11.64,9.43-17.4,14.22-144.09,119.64-288.16,239.31-432.26,358.94-155.24,128.89-310.49,257.75-465.73,386.64-2.69,2.23-5.42,4.45-7.87,6.93-15.95,16.15-15.7,40.25.56,56.26,2.13,2.1,4.49,3.97,6.79,5.88,77.24,64.12,154.49,128.23,231.73,192.35,114.9,95.38,229.81,190.76,344.71,286.14,111.44,92.51,222.88,185.03,334.33,277.53,2.3,1.91,4.52,4.04,7.11,5.48,10.74,5.98,25.48,1.21,26.67-13.46.44-5.46.27-10.98.27-16.47.01-255.25,0-510.5,0-765.75,0-124.38,0-248.76,0-373.13ZM0,1572.98c0,38.96-.01,77.93.02,116.89,0,4.49-.22,9.06.56,13.44,2.39,13.5,15.69,19.28,27.45,12.09,2.54-1.55,4.77-3.61,7.08-5.52,128.37-106.54,256.74-213.08,385.1-319.63,174.48-144.84,348.95-289.68,523.4-434.54,3.45-2.87,6.99-5.71,10.02-8.99,14.53-15.75,14.24-38.75-.61-54.13-2.42-2.51-5.16-4.71-7.85-6.95-65.31-54.26-130.63-108.5-195.96-162.74-120.67-100.17-241.35-200.33-362.02-300.5-116.83-96.98-233.65-193.97-350.48-290.95-1.92-1.6-3.8-3.25-5.73-4.82-6.27-5.1-13.13-7.35-20.79-3.45C2.67,127.01,0,133.72.03,141.79c0,4.5-.02,8.99-.02,13.49,0,254.77,0,509.53,0,764.3,0,217.8,0,435.6,0,653.4Z"/>
  </g>
</svg>