<?xml version="1.0" encoding="UTF-8"?>
<svg id="Layer_2" data-name="Layer 2" xmlns="http://www.w3.org/2000/svg" viewBox="0 0 2871.52 2871.75">
  <defs>
    <style>
      .cls-1 {
        fill: #f4f4f5;
        stroke-width: 0px;
      }
    </style>
  </defs>
  <g id="Layer_1-2" data-name="Layer 1">
    <path class="cls-1" d="m1435.09,0c41.01.64,78.9,2.32,116.78,5.13,36.87,2.74,73.51,7.23,109.94,13.11,84.81,13.68,167.79,34.73,248.76,63.61,147.92,52.74,283.52,127.84,407.05,224.65,103.19,80.87,193.85,174.05,272,279.38,80.53,108.54,144.73,225.95,192.28,352.45,27.98,74.43,49.27,150.74,64.4,228.79,7.6,39.22,13.41,78.73,17.57,118.45,7.67,73.15,9.45,146.56,5.88,219.98-2.81,57.86-9.48,115.37-19.34,172.53-32.84,190.37-101.31,366.95-205.12,529.72-90.03,141.15-201.51,262.87-333.97,365.35-106.48,82.38-222.35,148.33-347.35,198.15-71.89,28.65-145.74,50.98-221.42,67.49-43.9,9.58-88.13,16.96-132.63,22.65-26.7,3.41-53.68,4.58-80.5,7.1-49.36,4.64-98.83,3.15-148.24,2.31-26.42-.45-52.84-2.87-79.17-5.33-29.29-2.73-58.64-5.57-87.69-10.07-32.49-5.04-64.86-11.2-96.98-18.28-92.27-20.34-181.59-49.84-267.97-88.23-100.78-44.79-195.17-100.36-283.03-167.01-95.6-72.53-180.73-155.79-255.32-249.8-77.7-97.93-141.35-204.32-191.1-319-38.85-89.55-68.13-182.15-88.16-277.7-8.2-39.11-14.96-78.45-19.91-118.06-9.24-73.95-12.98-148.27-11.55-222.76.95-49.45,4.74-98.78,11.27-147.82,15.89-119.29,45.95-234.87,91.19-346.47,46.97-115.86,108.16-223.64,183.31-323.5,72.46-96.27,155.75-182.08,249.66-257.56,125.57-100.93,264.11-178.81,415.58-233.71,68.07-24.67,137.69-43.79,208.64-57.93,43.04-8.58,86.46-14.92,130.17-19.4,49.23-5.05,98.57-7.3,144.97-8.21Zm-415.79,1207.18c1.61-3.92,3.07-7.07,4.22-10.33,8.44-24,16.5-48.14,25.32-72,7.09-19.17,14.34-38.34,22.8-56.92,15.72-34.54,37.37-64.76,67.76-88.24,4.2-3.25,7.6-7.89,10.45-12.47,7.92-12.7,15.55-25.59,22.94-38.6,18.45-32.5,42.18-60.57,70.47-84.88,5.3-4.56,10.65-9.09,15.65-13.96,13.59-13.23,27.02-26.64,40.49-39.99,2.13-2.11,4.1-4.37,6.23-6.48,16.34-16.26,36.02-24.57,59.09-25.05,7.98-.16,15.95-.94,23.94-1.16,10.46-.29,20.94-.09,31.4-.48,9.46-.35,19.1-.18,28.29-2.04,16.35-3.31,29.43-12.36,37.76-27.09,3.65-6.45,6.62-13.45,8.81-20.54,3.84-12.44,5.46-25.31,5.82-38.37.28-9.96.68-20,2.25-29.81,2.44-15.25,8.55-20.35,24.11-21.23,8.47-.48,16.99.02,25.47-.36,5.43-.24,11.02-.6,16.21-2.06,29.31-8.26,50.91-26.62,66.54-52.32,4.21-6.93,5.68-14.78,6.4-22.87,2.31-25.93,6.25-51.42,17.56-75.4,5.35-11.35,7.76-23.89,5.47-36.55-5.61-30.94-22.94-52.86-52.49-63.85-21.08-7.84-42.94-8.75-64.66-1.99-10.45,3.25-20.9,6.72-30.93,11.08-21.49,9.34-42.62,19.52-64.08,28.95-12.3,5.4-24.81,10.45-37.51,14.84-18.28,6.31-36.99,7.33-56.04,3.2-6.79-1.47-13.86-1.98-20.83-2.2-43.3-1.38-77.42,23.52-89.32,65.16-1.64,5.72-2.35,11.71-3.48,17.58-3.05,15.85-11.41,27.45-26.83,33.27-11.73,4.43-23.86,7.35-36.38,7.98-17.52.88-34.8-.67-52-4.71-24.33-5.72-47.63-14.63-71.51-21.67-9.34-2.75-13.01-8.26-13.62-17.05-.28-3.98-.41-7.97-.5-11.96-.09-4.37,1.78-7.97,5.6-9.87,6.66-3.32,13.35-6.86,20.41-9.04,14.44-4.45,29.53-4.8,44.49-5,12.97-.18,25.96.69,38.94.86,3.32.04,6.64-.81,10.1-1.28,1.09-9.23,1.78-17.68,3.14-26.02,1.4-8.59-.86-17.85,4.02-26.42,5.51.41,10.46.63,15.37,1.18,31.08,3.5,59.29-4.27,85.39-21.09,13.08-8.43,24.98-18.25,36.39-28.74,4.07-3.75,8.06-7.58,13.65-8.84,12.5-2.81,22.68-10.05,33-17.04,9.09-6.16,18.16-12.36,27.24-18.54,27.75-18.92,53.43-40.27,76.37-64.84,13.64-14.6,27.29-29.19,40.84-43.88,1.86-2.02,4.92-3.62,3.72-8.12-1.68-.84-3.8-2.02-6.01-2.99-21.95-9.53-43.87-19.16-65.91-28.49-12.39-5.25-24.89-10.3-37.54-14.9-21-7.65-41.3-5.42-60.32,6.18-6.78,4.14-12.98,9.27-19.26,14.19-7.86,6.16-15.38,12.75-23.3,18.82-9.16,7.02-19.14,12.87-30.24,16.11-27.87,8.14-48.14,25.65-62.81,50.1-5.38,8.98-10.38,18.23-14.88,27.67-6.34,13.32-14.88,24.78-26.21,34.19-11.52,9.57-23.02,19.18-34.66,28.61-7.74,6.28-13.89,6.5-21.47.26-4.59-3.78-8.31-8.59-12.58-12.79-4.61-4.54-9.16-9.19-14.18-13.25-4.16-3.37-9.18-4.1-13.93-.87-7.41,5.04-14.92,9.98-21.95,15.52-15.03,11.85-37.98,20.99-59.74,22.9-.63-4.75-.98-9.65-1.99-14.41-1.54-7.29-2.74-14.8-5.5-21.64-4.79-11.88-12.93-15.69-25.22-11.94-8.04,2.45-15.87,5.89-23.41,9.67-12.48,6.26-24.56,13.33-36.99,19.71-6.64,3.4-13.45,6.79-20.57,8.88-12.07,3.55-23.79,3.69-32.27-8.16-1.44-2.01-3.36-3.7-5.19-5.39-15.7-14.59-34.11-20.23-55.21-16.14-7.82,1.51-15.67,3.24-23.22,5.74-80.69,26.68-149.6,72.39-210.64,130.78-6.68,6.39-11.07,14.12-13.89,22.78-2.63,8.11-3.73,16.45-4.19,25.01-1.38,25.42-2.92,50.85-5.02,76.22-3.33,40.34-15.22,78.07-34.5,113.76-31.08,57.53-59.85,116.25-87.35,175.58-3.36,7.24-6.77,14.5-9.46,21.99-8.99,25.03-11.42,50.53-4.31,76.49,7.1,25.91,22.27,46.6,41.89,64.37,6.66,6.03,13.67,11.72,20,18.08,19.52,19.61,35.12,41.91,45.6,67.47-4.61,8.89-8.65,17.35-14.56,25.67-4.62-2.61-8.36-4.86-12.23-6.87-3.96-2.06-7.88-4.94-12.11-5.6-15.24-2.38-30.61-3.99-45.93-5.83-.35-.04-.77.51-2.1,1.45.11,14.81,3.55,29.82,5.76,44.97,1.09,7.43,4.73,12.91,10.31,17.59,5.35,4.49,10.75,8.98,15.6,13.99,17.47,18.04,25.52,39.35,19.65,64.32-2.03,8.66-.22,15.58,3.98,22.7,3.5,5.95,7.64,11.63,9.48,18.91-5.42,1.87-10.15-.06-14.94-.65-7.26-.89-14.57-2.59-22.73.32,2.17,14.69,4.52,28.93,6.3,43.25.93,7.43,4.28,13.05,9.75,17.9,6.35,5.63,12.84,11.18,18.53,17.44,16.05,17.67,23.56,38.04,17.58,62.02-1.93,7.74-.63,14.6,3.33,21.49,20.89,36.36,41.55,72.85,62.36,109.25,1.97,3.45,4.2,6.83,6.76,9.84,3.29,3.87,7.53,7.09,12.68,7.32,13.44.6,26.92,1.74,40.29-1.4,4.9-1.15,7.74-3.76,9.61-8.32,6.31-15.38,9.76-31.37,11.36-47.88,1.88-19.52-1.55-37.71-11.85-54.59-3.9-6.38-7.19-13.13-10.53-19.83-1.23-2.47-1.81-5.27-3.06-9.06,15.58-3.79,30.04-7.22,44.45-10.85,6.25-1.58,12.69-2.92,18.52-5.54,7.64-3.44,9.74-10.12,5.77-17.38-2.61-4.76-6.12-9.11-9.68-13.26-16.29-18.93-32.76-37.7-49.09-56.6-2.07-2.39-3.66-5.19-5.73-8.18,2.04-.36,3.15-.94,3.88-.62,13.74,5.87,27.58,11.55,41.11,17.89,10.03,4.7,18.27,11.93,25.9,20.04,9.22,9.81,18.68,19.49,28.78,28.38,24.15,21.27,51.7,37.39,80.54,51.41,39.51,19.21,80.88,33.94,121.57,50.28,1.8.72,3.78,1.01,5.87,1.55.37-1.84.91-3.28.88-4.71-.07-2.99-.3-5.99-.71-8.95-3.01-21.57-12.33-40.15-28.21-54.85-10.21-9.45-21.2-18.36-32.86-25.91-43.77-28.34-77.17-66.02-102.64-111.15-20.95-37.13-36.08-76.71-49.27-117.09-5.11-15.64-4.82-31.46.39-47.11,9.57-28.73,28.72-48.53,56.39-60.39,12.82-5.5,25.7-10.88,38.39-16.65,13.27-6.04,26.88-10.38,41.51-11.7,29.9-2.69,56.28,5.3,78.87,25.18,16.58,14.59,27.25,33.01,33.83,53.87,2.55,8.08,4.06,16.48,6.56,24.57,2.5,8.08,5.27,16.11,8.58,23.88,4.15,9.75,11.86,16.2,21.97,18.89,10.54,2.81,21.23,5.7,33.61,3.74Zm663.89-52.7c-1.77-.86-2.62-1.64-3.46-1.63-12.48.26-24.97.45-37.44,1.01-8.54.39-16.8,2.42-24.48,6.26-19.63,9.81-39.4,19.38-58.76,29.71-18.98,10.12-36.78,22.12-53.13,36.19-10.67,9.18-20.11,19.48-27.82,31.23-15.38,23.45-22.3,48.84-17.03,76.91.92,4.9,1.82,9.82,2.55,14.75,2.53,17.07,1.67,33.47-5.64,49.75-15.98,35.56-32.26,70.88-54.76,102.94-1.72,2.44-3.2,5.07-4.61,7.71-6.28,11.81-9.15,24.3-6.56,37.6,1.42,7.32,3.11,14.64,5.44,21.71,3.13,9.47,7.02,18.68,10.54,28.01,20.76,55.09,41.45,110.2,62.33,165.25,3.18,8.38,6.9,16.59,10.88,24.62,4.95,9.98,11.82,18.46,21.35,24.59,12.17,7.83,24.21,15.86,36.4,23.66,34.05,21.79,68.26,43.33,102.14,65.37,8.31,5.41,15.88,12.08,23.29,18.73,7.97,7.15,13.04,16.3,15.84,26.69,6.21,23.14,11.52,46.47,15.42,70.13,5.2,31.57,8.28,63.33,10.02,95.28,2.01,36.96,2.12,73.87-.05,110.82-.91,15.44-1.31,30.96-1.03,46.42.43,23.4,6.72,45.11,19.35,65.16,7.41,11.77,13.43,24.47,19.49,37.03,4.55,9.42,7.93,19.4,12.28,28.93,4.77,10.43,9.57,20.9,15.29,30.8,3.7,6.4,8.87,12.01,13.77,17.64,3.85,4.41,8.84,5.79,14.89,4.8,8.53-1.4,16.28-4.57,23.81-8.51,10.14-5.3,17.66-13.13,21.3-24.06,2.67-8.02,5.31-16.17,6.68-24.48,1.86-11.3,2.66-22.78,3.63-34.21,1.44-16.98,3.67-33.72,11.22-49.33,9.03-18.68,23.43-30.96,43.52-35.88,10.15-2.49,20.65-4.01,31.2-2.55,14.81,2.05,29.59,4.3,44.36,6.58,6.9,1.06,13.71,2.99,20.64,3.5,30.06,2.21,40.17-12.67,45.74-31.42.85-2.86,1.21-5.87,1.95-8.77,4.17-16.35,13.07-28.67,28.8-36.07,19.59-9.21,36.9-21.96,52.24-37.17,11.34-11.24,22.31-22.89,33-34.76,10.02-11.13,19.57-22.69,29.12-34.24,8.95-10.82,18.75-20.78,29.86-29.35,10.27-7.93,20.69-15.67,31.24-23.23,20.69-14.83,41.61-29.34,62.22-44.29,6.03-4.38,11.43-9.66,16.88-14.79,4.87-4.59,7.89-10.35,8.47-17.09,2.02-23.46,11.3-44.34,23.01-64.28,6.83-11.62,14.08-22.99,21.35-34.34,12.7-19.84,23.7-40.59,31.33-62.85,10.35-30.19,19.75-60.7,29.57-91.08,2.58-7.99,1.77-15.83-1.35-23.41-1.89-4.59-4.19-9.06-6.69-13.36-28.02-48.33-68.7-81.27-121.82-98.22-35.69-11.39-70.15-25.8-104.77-39.91-25.33-10.32-43.4-27.87-54.28-52.92-3.58-8.24-6.67-16.73-10.87-24.64-5.13-9.66-10.52-19.33-17.01-28.1-12.89-17.43-30.89-26.19-52.37-28.15-18.01-1.65-35.99-.96-53.81,1.53-27.87,3.89-49.87-5.78-67.12-27.39-2.8-3.51-5.14-7.38-7.84-10.97-13.93-18.54-31.9-31.31-54.15-38.09-31.72-9.67-62.1-6.25-91.31,9.06-3.97,2.08-7.73,4.62-11.82,6.43-16.16,7.15-31.79,8.74-45.57-5.26-.35-.35-.8-.6-1.19-.91-31.53-25.41-61.34-52.76-90.71-80.6-1.09-1.03-2.11-2.13-3.21-3.15-3.09-2.89-4.41-6.47-4.72-10.65-.56-7.6.41-14.91,3.27-22.01,7.66-18.97,15.24-37.96,22.81-56.96,2.36-5.93,4.61-11.9,6.87-17.74Zm-934.54,1229.74c2.58,4.86,5.32,10.07,8.1,15.26,4.7,8.79,9.14,17.75,14.22,26.32,5.56,9.37,13.69,16.2,24.42,18.5,16.89,3.62,33.73,2.74,50-3.5,7.51-2.88,12.3-8.55,13.83-16.45.85-4.37,1.12-8.95.95-13.41-.37-9.98-1.04-19.95-1.84-29.9-2.63-32.84-5.34-65.67-8.08-98.5-2.28-27.36-4.38-54.74-7.02-82.06-3.32-34.27-7.28-68.49-10.64-102.76-2.73-27.89-7.37-55.36-15.7-82.17-1.47-4.72-2.58-9.64-3.12-14.55-2.92-26.29-5.35-52.63-8.46-78.9-2.17-18.32-4.47-36.67-7.93-54.77-7.25-37.99-22.31-73.4-37.62-108.65-1.58-3.63-3.69-7.13-6.08-10.3-9.55-12.73-22.04-19.7-38.32-19.82-10.86-.08-20.56,2.93-29.82,8.33-25.42,14.83-51.02,29.36-76.36,44.32-7.28,4.29-14.32,9.17-20.8,14.59-17.68,14.79-22.76,33.49-14.93,55.14,3.2,8.86,7.48,17.39,11.95,25.71,4.29,7.99,7.56,16.25,9.71,25.01,3.08,12.55,1.48,22.33-10.35,31.08-19.04,14.09-28.35,34.43-29.04,58.27-.24,8.46-.21,17.02.7,25.42,1.34,12.29-.83,23.65-5.51,35.02-4.73,11.51-8.23,23.53-12.43,35.26-3.64,10.17-3.95,20.58-2.18,31.03,4.04,23.79,14.28,44.55,31.36,61.72,4.9,4.92,10.2,9.45,15.11,13.97,3.77,13.4,1.7,25.85-3.38,38.25-4.16,10.14-7.06,20.78-11.17,30.94-6.92,17.12-5.6,34.03-.58,51.28,15.67,53.85,75.46,96.23,144.76,82.11,12-2.45,23.46-7.57,36.25-11.81ZM2271.79,458c0,4.42-.29,6.88.05,9.25,1.54,10.87,3.77,21.66,4.77,32.58.93,10.17,5.27,17.64,13.04,24.17,7.59,6.39,14.78,13.52,20.99,21.26,12.54,15.61,17.49,33.86,12.98,53.43-2.34,10.17-.79,18.43,4.44,26.93,3.27,5.31,7.34,10.46,8.23,17.71-10.05-.92-19.42-1.93-28.82-2.54-2.67-.17-5.42.79-8.46,1.29,1.91,13.8,3.72,26.63,5.45,39.48,1.32,9.75,4.83,17.91,13.27,24.08,6.38,4.67,11.92,10.64,17.24,16.56,15.43,17.13,20.96,37.46,16.12,59.78-1.88,8.68-.55,15.43,3.59,22.66,20.61,35.94,41.03,71.98,61.53,107.97,1.48,2.6,3.01,5.19,4.7,7.66,4.84,7.06,11.48,11.1,20.17,10.89,10.46-.25,20.91-.95,31.38-1.25,8.19-.23,12.35-4.63,15.02-12.08,4.92-13.72,7.79-27.75,9.69-42.18,2.58-19.59-.66-37.7-10.43-54.81-4.45-7.8-8.59-15.78-12.63-23.8-1-1.98-1.08-4.42-1.75-7.39,14.9-3.63,28.89-7.05,42.9-10.43,5.33-1.29,10.84-2.02,15.99-3.81,11.26-3.91,14.22-12.25,8.07-22.31-2.07-3.38-4.75-6.41-7.36-9.43-18.27-21.18-36.57-42.32-54.9-63.44-3.93-4.53-7.05-9.04-8.46-15.37-1.93-8.64-5.78-16.93-9.48-25.06-3.51-7.71-7.99-14.96-11.84-22.52-1.24-2.44-1.84-5.22-2.8-8.07,2.71-1.17,4.46-2.22,6.35-2.69,14.02-3.46,28.08-6.76,42.11-10.2,4.35-1.07,8.83-1.95,12.89-3.73,8.67-3.81,11.11-11.41,6.27-19.71-2.49-4.27-5.77-8.15-9.04-11.89-39.75-45.52-79.55-90.99-119.4-136.41-1.76-2.01-4.12-3.49-6.9-5.8-5.83,10.69-10.89,20.4-16.38,29.87-5.39,9.3-9.26,19.59-16.88,28.33-4.1-2.47-7.43-4.59-10.86-6.51-3.48-1.95-6.87-4.52-10.63-5.41-15.99-3.78-32.3-5.37-50.2-7.03Z"/>
  </g>
</svg>