<?xml version="1.0" encoding="UTF-8"?>
<svg id="Layer_2" data-name="Layer 2" xmlns="http://www.w3.org/2000/svg" viewBox="0 0 2859.48 3104.02">
  <defs>
    <style>
      .cls-1 {
        fill: #f4f4f5;
        stroke: #f4f4f5;
        stroke-linejoin: round;
        stroke-width: 10px;
      }
    </style>
  </defs>
  <g id="Layer_1-2" data-name="Layer 1">
    <path class="cls-1" d="m1041.52,568.58c-7.22-.12-12.66-.28-18.1-.28-36.47-.02-72.94-.06-109.42,0-12.63.02-24.91-1.91-36.55-6.78-11.69-4.9-21.36-12.64-29.85-22.08-39.46-43.8-79.05-87.48-118.6-131.19-39.89-44.08-79.78-88.15-120.54-133.19-5.2-.09-11.12-.28-17.05-.28-166.37-.02-332.75-.01-499.12-.01-8.99,0-17.87-.29-26.77-2.29-36.08-8.1-60.4-41.07-60.37-74.44.03-39.47-.36-78.94.07-118.4C5.69,36.27,44.14,4.94,78.71,5.14c5.99.04,11.99-.14,17.98-.14,888.33,0,1776.66,0,2664.98,0,6.49,0,12.99.22,19.48.15,29.75-.34,67.76,25.41,72.27,67.63.58,5.45.94,10.96.95,16.44.08,34.47.23,68.95-.1,103.41-.08,8.41-.93,17.04-3.01,25.16-6.64,25.9-30.46,53.83-71.32,56.79-5.97.43-11.99.19-17.98.19-163.88,0-327.75,0-491.63,0h-18.66c-4.32,4.62-8.79,9.26-13.11,14.04-70.4,77.79-140.77,155.59-211.16,233.39-4.36,4.82-8.93,9.46-13.04,14.47-18.46,22.48-42.49,31.95-71.19,31.68-34.97-.33-69.95-.08-104.92-.08-5.45,0-10.91,0-16.91,0-.72,3.73-1.61,6.52-1.74,9.34-.26,5.48-.1,10.99-.1,16.48,0,336.22,0,672.45,0,1008.67,0,29.39.95,27.95-16.59,54.19-75.49,112.93-150.92,225.89-226.36,338.84-1.66,2.49-3.11,5.16-4.99,7.47-3.7,4.53-4.38,9.48-4.33,15.29.35,43.96-.01,87.93.47,131.88.27,25-16.89,49.98-44.79,56.39-5.28,1.21-10.86,1.41-16.31,1.55-9.92.26-19.86.13-29.3.16-4.04,5.95-2.53,11.61-2.55,16.93-.14,45.96-.08,91.92-.08,137.89,0,75.44,0,150.88,0,226.31,0,5-.1,9.99-.14,14.99-.15,21.37-19.9,41.9-44.52,41.54-24.76-.36-43.09-21.26-43.15-41.35-.02-5.49-.14-10.99-.14-16.48,0-119.9,0-239.8,0-359.7v-18.58c-3.68-.64-6.45-1.48-9.24-1.54-8.99-.19-17.98-.09-26.98-.11-29.88-.08-56.74-25.37-56.67-56.22.09-43.46-.27-86.93.24-130.39.1-8.5-1.81-15.22-6.47-22.16-56.48-84.18-112.74-168.51-169.05-252.81-21.64-32.39-42.89-65.05-65.04-97.08-8.38-12.13-11.79-24.67-11.76-39.23.26-121.4.15-242.8.15-364.2,0-218.82,0-437.64-.01-656.46,0-6.42-.2-12.84-.34-21.32Zm88.31,217.13c0,7.26,0,13.68,0,20.11,0,248.74,0,497.49,0,746.23,0,4-.15,8,.07,11.98.16,2.87.83,5.7,1.25,8.39,7.01,2.35,13.54,1.37,19.96,1.37,186.32.06,372.64.05,558.96.05,4,0,8,.15,11.98-.09,2.81-.16,5.59-.86,9.13-1.43.12-7.29.31-13.71.31-20.12.02-248.75.01-497.49.01-746.24,0-4,.13-8-.07-11.99-.14-2.87-.73-5.72-1.15-8.78-2.56-.47-4.46-1.13-6.37-1.14-46.45-.03-92.91,0-139.36.11-1.37,0-2.73.81-4.77,1.45-1.41,5.77-.83,11.74-.83,17.62-.03,143.85-.03,287.71-.03,431.56,0,25.47-.09,50.95,0,76.42.04,12.08-1.73,23.88-4.65,35.53-19.17,76.47-96.16,125.67-173.15,109.39-60.17-12.72-98.56-49.7-115.73-108.61-4.65-15.96-5.03-32.49-5.03-49.01.02-163.33.01-326.67.01-490,0-4.99.11-10-.09-14.98-.12-2.83-.77-5.63-1.14-8.16-14.64-2.02-135.49-1.91-149.32.31Zm-399.7-508.25c19.99,22.97,40.58,45.04,60.72,67.5,20,22.31,40.17,44.47,60.28,66.67,20.41,22.54,40.85,45.05,61.11,67.39h1035.24c59.98-66.47,120.17-133.19,180.32-199.95.49-.54.24-1.76.33-2.67-.78-.48-1.56-1.37-2.34-1.37-463.94-.04-927.87-.02-1391.81.06-.76,0-1.52.9-3.84,2.36ZM95.07,185.72c7.04.07,13.47.18,19.91.18,876.67,0,1753.34,0,2630.01,0,4,0,8,.17,11.98-.09,2.8-.18,5.56-.97,8.06-1.43,1.97-18.6,1.52-79.23-.56-90.24-.36-.34-.68-.92-1.09-.99-1.97-.31-3.95-.67-5.93-.67-886.65.1-1773.3.23-2659.95.37-.48,0-1,.19-1.42.44-.39.23-.66.66-1.05,1.07-2.13,11.46-2.34,75.07.03,91.34Zm1076.3,1478.02c5.31,11.71,185.74,283.06,200.07,301.28,17.67,1.78,108.69,1.32,119.66-.65,2.99-4.38,6.12-8.89,9.17-13.45,26.62-39.85,53.23-79.72,79.84-119.57,34.38-51.48,68.8-102.93,103.09-154.47,2.59-3.9,6.71-7.35,6.36-12.84-11.99-1.63-501.29-1.95-518.18-.3Zm-40.47-969.93c6.17,2.06,12.16,1.26,18.01,1.26,187.73.05,375.46.04,563.19.04,3.49,0,7.01.2,10.48-.09,2.78-.24,5.51-1.09,8.86-1.8,0-39.67.01-78.56-.04-117.46,0-1.89-.6-3.79-.91-5.66-1.86-.66-3.21-1.57-4.57-1.57-196.22-.1-392.43-.14-588.65-.13-1.89,0-3.79.67-5.71,1.03-.6,1.75-1.48,3.12-1.48,4.48-.11,37.94-.15,75.88-.14,113.82,0,1.89.58,3.79.95,6.07Zm239.01,92.01c-1.42,5.53-.81,11.49-.81,17.36-.04,165.7-.03,331.39-.03,497.09,0,3.49.08,6.99.01,10.48-.52,27.01,20.87,57.81,57.06,59.91,32.57,1.88,60.83-21.96,63.63-54.38.56-6.45.48-12.96.48-19.44.02-163.7.02-327.4.02-491.1,0-3.99.11-7.99-.08-11.98-.13-2.84-.67-5.66-.99-8.2-15.09-2.34-106.87-2.13-119.3.26Zm108.31,1332.58c2.1-15.57,1.91-50.33-.23-62.05-1.19-.49-2.52-1.51-3.85-1.52-28.42-.14-56.84-.2-85.26-.17-1.86,0-3.73.87-5.36,1.27-2.69,13.42-2.49,51.86.21,62.44,11.68,2.06,80.99,2.16,94.48.02Zm-146.82,725.51h198.48c28.88-24.81,57.67-49.55,86.47-74.28,5.31-4.56,10.6-9.13,15.99-13.58,8.77-7.24,18.68-11.36,30.27-10.81,2.99.14,5.99.02,8.99.02,365.2,0,730.4,0,1095.61.03,9.95,0,19.82-.24,29.69,2.59,31.94,9.16,53.89,34.88,56.85,67.77.53,5.96.65,11.97.65,17.96.05,59.45.05,118.9,0,178.34,0,5.99-.12,12-.71,17.95-3.34,33.67-28.93,61.73-62.17,68.21-3.4.66-6.95.73-10.44.81-5.99.14-11.99.08-17.98.08-889.28,0-1778.55,0-2667.83,0-5,0-9.99.05-14.99-.02-38.72-.55-71.76-31.44-74.89-70.03-.2-2.49-.25-4.99-.25-7.49-.02-66.44.21-132.88-.14-199.32-.16-30.6,20.87-61.13,49.89-71.73,8.51-3.11,17.08-5.46,26.24-5.15,4.49.15,8.99,0,13.49,0,364.2,0,728.41.11,1092.61-.3,20.28-.02,36.52,5.16,51.51,18.93,24.63,22.63,50.5,43.92,75.86,65.76,5.66,4.87,11.39,9.66,16.81,14.26Zm-1236.5,166.43c6.84,2.02,13.35,1.15,19.74,1.15,876.83.04,1753.66.04,2630.49.04,4,0,8.01.21,11.98-.1,2.81-.22,5.56-1.14,9.02-1.9-.06-58.49.19-116.34-.18-173.91-6.94-4-13.57-2.45-19.91-2.46-350.23-.08-700.46-.07-1050.7-.07-3,0-6,.16-8.99-.02-5.26-.32-9.73,1.1-13.66,4.76-4.39,4.07-9.1,7.8-13.65,11.7-26.53,22.78-53.27,45.32-79.48,68.47-11.55,10.2-24.37,14.55-39.62,14.49-72.94-.25-145.89-.25-218.83,0-15.27.05-28.01-4.48-39.55-14.67-27.33-24.14-55.21-47.65-82.85-71.44q-15.42-13.27-35.99-13.29c-348.73,0-697.47,0-1046.2,0-4.5,0-9-.16-13.49.09-2.82.16-5.6.94-8.08,1.39-1.8,11.62-2.88,142.5-1.45,168.54.13,2.4.91,4.76,1.4,7.22Zm1192.63-439.14c-.59,21.96-1.86,43.93-1.59,65.88.33,27.09-30.18,55.94-64.44,38.15-36.29-18.84-71.69-39.42-107.17-59.77-18.22-10.45-35.01-23.1-50.3-37.58-19.14-18.13-34.91-38.75-42.16-64.4-12.47-44.14-2.81-84.34,25.92-119.33,37.84-46.07,100.41-61.34,155.96-38.27,24.37,10.12,43.08,26.81,56.63,49.27,14.16,23.47,21.17,49.34,24.84,76.3,4.06,29.84,2.93,59.81,2.3,89.75Zm-88.23-8.13c.61-4.89,1.23-7.28,1.14-9.63-.81-20.39-1.18-40.83-2.91-61.15-.88-10.3-3.49-20.64-6.71-30.51-8.16-25.05-34.42-34.16-57.06-24.75-22.98,9.55-40.4,40.72-17.9,67.91,2.53,3.06,5.25,6.03,8.21,8.67,22.1,19.64,47.31,34.52,75.21,49.47Zm377.14,7.37c0-18.97-.49-37.96.12-56.92.82-25.49,3.67-50.78,11.6-75.21,7.03-21.66,17.46-41.43,34.02-57.38,25.79-24.82,57.21-35.85,92.55-35.49,61.81.63,114.87,43.89,128.94,103.5,7.18,30.42,3.63,59.48-11.31,86.99-12.36,22.76-29.91,41.07-49.96,57.11-17.98,14.38-37.45,26.55-57.57,37.66-26.64,14.7-53.48,29.03-80.07,43.81-22.46,12.48-52.89,4.9-63.37-22.15-1.93-4.98-2.69-10.65-2.88-16.04-.78-21.95-1.12-43.92-1.62-65.88-.14,0-.29,0-.43,0Zm89.03-8.42c2.75-1,4.58-1.42,6.17-2.27,21.52-11.55,42.19-24.44,61.26-39.73,5.4-4.33,10.53-9.22,14.92-14.57,18.8-22.84,11.34-54.69-15.43-67.48-23.11-11.04-50.37-1.29-58.93,23.02-1.81,5.14-3.51,10.41-4.44,15.76-4.45,25.59-5.66,51.41-4.82,77.34.08,2.35.73,4.67,1.27,7.93Zm-782.05,74.33c2.5,7.82,6.64,14.4,12.38,20.13,12.36,12.32,24.68,24.68,37.04,37,5.3,5.28,10.34,10.87,16.03,15.68,11.66,9.86,24.9,14.32,40.24,10.13,32.17-8.78,44.75-46.34,22.63-71.19-17.87-20.08-37.58-38.55-56.93-57.26-7.73-7.47-17.59-11.2-27.95-10.64-30.27-1.38-52.03,29.29-43.44,56.15Zm1027.86,50.12c19.05-10.87,38.05-21.83,56.98-32.93,4.28-2.51,8.54-5.28,12.14-8.64,15.17-14.14,18.12-37.26,7.45-54.81-9.77-16.08-32.05-26.63-51.97-18.63-4.6,1.85-9.11,4.04-13.41,6.51-18.18,10.39-36.27,20.93-54.37,31.45-3.01,1.75-6.08,3.47-8.86,5.55-15.33,11.44-21.57,31.39-15.59,49.43,5.88,17.75,23.1,29.89,42.3,29.8,10.03-.04,13.39-.93,25.34-7.74Z"/>
  </g>
</svg>