<?xml version="1.0" encoding="UTF-8"?>
<svg id="Layer_2" data-name="Layer 2" xmlns="http://www.w3.org/2000/svg" viewBox="0 0 3300.48 1728">
  <defs>
    <style>
      .cls-1 {
        fill: #f4f4f5;
        stroke-width: 0px;
      }
    </style>
  </defs>
  <g id="Layer_1-2" data-name="Layer 1">
    <path class="cls-1" d="m1975.77,1533.41c-.54-11.96-1.3-23.92-2.55-35.81-.94-8.95-2.46-18.01-9.89-24.38-9.08-7.79-9.57-9.12.22-18.67,9.04-8.81,13.62-19.48,13.31-32.2-.12-4.99-.11-9.98-.03-14.97.27-17.66-8.02-30.29-22.56-39.58-13.15-8.39-27.85-10.77-42.88-11.01-27.45-.43-54.92-.08-82.38-.16-13.95-.04-20.31-1.26-19.99,19.37.45,28.95.12,57.92.11,86.88,0,27.96,0,55.93.01,83.89,0,3.99-.1,8,.23,11.98.66,8.07,3.31,10.75,10.99,11.23,3.48.22,7,.23,10.47-.01,7.31-.5,9.98-2.95,10.52-9.98.39-4.97.27-9.98.28-14.97.06-17.98-.1-35.95.18-53.93.15-9.5,2.37-11.77,11.36-11.85,17.97-.16,35.95.03,53.93.07,5.04.01,9.87,1,14.68,2.55,12.16,3.9,19.59,11.69,20.53,24.72.61,8.45,1.09,16.94,1.02,25.41-.06,9.07,1.29,17.94,3.08,26.72,1.61,7.9,5.53,11.04,13.41,11.37,5.48.22,10.99.15,16.47-.17,5.33-.31,8.51-5.12,5.44-9.31-6.18-8.4-5.54-17.75-5.96-27.19Zm-41.06-98.08c-2.65,6.62-8.11,11.38-15.24,13.39-6.22,1.76-12.48,3.56-19.05,3.56-17.95.02-35.91.24-53.85.03-10.28-.13-13.38-3.23-13.56-13.46-.26-14.96-.21-29.92.02-44.88.13-8.21,2.35-10.33,10.99-10.57,10.46-.29,20.94-.07,31.41-.07v.37c9.97,0,19.94-.12,29.91.06,4.98.08,9.82,1.05,14.51,3.11,9.33,4.09,15.12,10.72,17.69,20.72,2.5,9.75.69,18.96-2.83,27.74Zm245.13,84.75c-6.15-16.8-12.4-33.56-18.48-50.38-5.75-15.9-11.33-31.87-17.01-47.8-6.68-18.73-13.32-37.48-20.14-56.16-3.05-8.36-8.78-13.03-18.22-12.19-3.46.31-6.98-.02-10.47.06-11.52.26-15.91,3.27-19.99,14.18-4.52,12.1-8.78,24.3-13.18,36.45-5.26,14.5-11.09,28.76-15.91,43.45-5.87,17.9-12.74,35.52-20.14,52.85-5.83,13.66-9.24,28.21-16.26,41.43-2.99,5.64-4.47,12.12-6.26,18.33-2.05,7.08,1.23,11.48,8.8,12.17,2.98.27,6.03-.19,8.97.25,11.32,1.7,17.86-3.69,21.36-13.9.48-1.42,1.41-2.75,1.57-4.19,1.24-11.12,9.21-19.9,10.64-30.98.23-1.83,1.89-3.46,2.82-5.22,2.02-3.82,4.83-5.97,9.47-5.94,19.95.14,39.9-.09,59.85.13,8.63.1,10.77,2.15,13.83,10.77,4.48,12.6,9.46,25.04,13.26,37.83,2.63,8.86,7.88,12.1,16.51,11.42,1.48-.12,2.99-.02,4.48-.02v.04c1,0,2-.04,3,.01,13.11.64,19.78-2.08,13.76-18.9-4.03-11.25-8.15-22.47-12.26-33.69Zm-60.97-38.44c-7.45.33-14.92.08-22.39.08v.08c-6.47,0-12.95.26-19.4-.08-5.39-.29-8.2-4.04-6.66-9.23,2.4-8.1,5.4-16.02,8.23-23.98,4.01-11.23,8.03-22.47,12.19-33.64,1.21-3.24,2.86-6.32,4.47-9.38.95-1.82,2.53-3.35,4.71-2.81,1.95.48,3.37,2.04,4.02,4.05,6.79,20.81,13.57,41.61,20.32,62.43.46,1.41.8,2.88,1,4.35.6,4.54-1.78,7.91-6.49,8.13Zm-366.78-17.67c-2.28-1.91-4.96-3.37-7.18-5.33-3.02-2.67-3.14-6.09-.6-9.29.92-1.17,1.95-2.28,3.07-3.27,16.69-14.75,17.11-44.34,8.37-59.64-6.56-11.46-15.43-20.62-28.36-25.2-8.57-3.04-17.23-4.76-26.35-4.59-12.47.22-24.95.05-37.43.05v.02c-14.96,0-29.94-.17-44.9.06-9.36.14-10.88,1.98-11.38,11.68-.08,1.49-.07,2.99-.07,4.49,0,60.38,0,120.75.01,181.13,0,2.49,0,5,.29,7.47.68,5.85,2.84,7.96,8.47,8.48,1.49.13,2.99.12,4.49.12,26.44-.01,52.89-.06,79.33-.03,11.15.01,21.82-2.68,32.14-6.4,6.98-2.52,13.51-6.12,19.17-11.34,15.95-14.72,21.07-32.81,19.48-54.05-1.09-14.66-7.81-25.39-18.55-34.36Zm-112.68-73.59c.44-4.25,2.5-6.72,6.57-6.8,18.94-.38,37.91-1.3,56.77,1.43,1.96.28,3.86,1.01,5.75,1.65,16.98,5.82,22.93,15.41,20.56,33.08-1.67,12.47-9.24,20.71-21.71,23.51-12.26,2.75-24.72,3.09-37.57,2.62-6.63,0-13.62.24-20.59-.07-6.28-.28-9.33-3.04-9.73-9.1-1.02-15.43-1.65-30.89-.05-46.32Zm93.86,136.09c-7.57,9.33-17.18,15.02-29.4,15.34-8.95.23-17.9.05-26.85.05v.07c-8.95,0-17.91.2-26.85-.07-7.36-.22-10.52-2.8-10.65-9.57-.33-16.9-.3-33.81-.01-50.71.11-6.29,2.84-8.81,9.55-8.87,18.89-.18,37.79-.14,56.67.21,7.03.12,13.82,2.4,19.74,6.17,18.67,11.9,16.57,36.57,7.8,47.38Zm-875.49-61.97c0,29.94.09,59.88-.04,89.82-.07,14.86-1.74,16.3-16.42,15.99-1.99-.04-4-.01-5.97-.27-6.03-.81-8.96-3.66-9.49-9.6-.36-3.96-.27-7.97-.27-11.96-.02-56.89-.02-113.77-.02-170.65,0-1.49-.01-2.99.03-4.49.35-14.34,2.65-16.69,16.53-16.82,2.49-.03,5-.1,7.47.17,4.71.51,7.32,2.93,7.79,7.54.4,3.96.39,7.97.4,11.96.03,29.44,0,58.88,0,88.31h-.02Zm1528.37-84.62c.01,55.45.01,110.9,0,166.35,0,4.49.19,9.03-.35,13.47-1.07,8.75-4.87,12.05-13.72,12.58-1.99.12-4.03-.17-5.99.12-12.55,1.88-20.74-3.81-27.05-14.26-12.09-20.07-24.62-39.88-37.09-59.72-15.13-24.08-30.37-48.08-45.63-72.08-1.83-2.87-3.13-6.31-6.68-7.71-2.82,1.24-2.94,3.77-2.96,6.22-.08,9.99-.09,19.98-.09,29.97-.02,32.47-.2,64.94.04,97.41.16,21.21-3.11,20.36-21.74,20.07-.99-.02-1.99-.08-2.99-.14-5.1-.33-8.26-3.05-9.7-7.89-1.73-5.83-1.84-11.8-1.83-17.82.04-40.96.02-81.92.02-122.88,0-14.99-.01-29.98.01-44.96,0-3.5-.13-7.02.18-10.49.84-9.4,4.66-13.19,14.26-13.96,4.47-.36,9.02.18,13.48-.23,9.18-.84,14.98,3.59,19.54,11.03,14.86,24.23,29.92,48.33,44.88,72.49,13.11,21.18,26.19,42.37,39.29,63.55.52.85.98,1.86,1.75,2.39,1.16.81,2.68,1.91,3.83,1.69,1.04-.19,2.44-1.91,2.54-3.06.4-4.46.45-8.97.45-13.46.03-36.97.01-73.94.03-110.9.01-4.49-.1-9.02.41-13.47.66-5.68,4.07-8.95,9.68-9.79,2.46-.37,4.98-.36,7.47-.34,12.58.13,17.35,4.6,17.91,16.83.14,2.99.06,5.99.06,8.99Zm-1316.45-14.23c-1.46,5.79-3.43,11.47-5.47,17.09-10.74,29.56-21.56,59.08-32.37,88.6-10.11,27.63-20.19,55.27-30.39,82.87-5.85,15.83-6.21,15.98-22.42,15.94-13.61-.04-16.58-1.98-21.05-14.37-16.09-44.59-32.03-89.24-48.2-133.8-5.62-15.48-11.73-30.77-17.6-46.15-.53-1.4-1.14-2.79-1.46-4.24-2.78-12.64.91-15.28,11.32-14.91,2.5.09,5,.15,7.49.05,8.23-.33,12.64,3.64,15.1,11.48,6.71,21.39,13.92,42.62,21.06,63.87,7.61,22.68,15.25,45.35,23.15,67.92,2.29,6.56,2.5,13.88,6.94,19.65.88,1.15,2.09,2.63,3.3,2.8,2.13.29,3.55-1.49,4.3-3.37,2.04-5.1,4.12-10.19,5.85-15.39,14.47-43.57,28.86-87.17,43.29-130.75.94-2.85,1.84-5.73,3.11-8.43,2.29-4.84,5.83-8,11.63-7.8,5.48.19,10.99-.03,16.46.4,4.51.36,7.12,3.99,5.96,8.54Zm204.1.38c-1.24,3.23-3.08,6.27-4.93,9.22-11.13,17.74-22.3,35.46-33.54,53.14-8.55,13.44-16.89,27.03-25.95,40.12-6.51,9.42-9.68,19.18-9.25,30.75.65,17.46.18,34.96.13,52.45-.01,3.99.04,8.02-.46,11.96-.63,5.07-3.7,7.92-9.02,8.32-4.97.38-10,.42-14.97.11-7.25-.45-11-4-11.6-11.13-.46-5.46-.27-10.98-.3-16.47-.04-6.5-.01-12.99-.02-19.48,0-8-.64-16.05.15-23.97,1.17-11.67-3.03-21.38-9.03-30.77-20.65-32.29-41.29-64.59-61.92-96.9-2.69-4.22-6.1-8.7-3.75-13.81,2.76-6,8.98-5.33,14.41-5.47,3.49-.09,7-.05,10.48.21,5.79.44,10.39,2.78,13.5,8.07,5.04,8.6,10.54,16.93,15.67,25.47,9.25,15.37,18.37,30.81,27.54,46.21,1.28,2.15,2.47,4.36,3.89,6.4,4.86,6.99,9.33,7.05,13.62-.2,9.38-15.86,18.38-31.94,27.73-47.82,6.07-10.3,12.36-20.47,18.81-30.54,3.44-5.37,8.42-8.26,15.15-7.86,5.47.33,11-.1,16.47.34,6.64.54,9.59,5.37,7.19,11.65Zm894.13-680.6c-1,1.27-2.06,2.44-3.18,3.54l3.18-3.54Zm848.12,353.16c-41.69-2.5-84.4,39.11-84.23,84.97.17,46.68,44.73,84.31,84.37,83.81,41.59-.51,84.2-37.23,83.91-85.54-.3-50.46-46.57-85.82-84.05-83.24Zm35,89.6c5.98,8.12,5.91,17.76,7,27.08.74,6.41-.08,12.95,1.74,19.33.85,2.96-1.27,4.62-4.05,4.96-5.93.73-8.56-.99-10.29-6.11-2.46-7.29-1.64-14.83-1.83-22.29-.14-5.14-.98-9.84-4.8-13.71-3.28-3.32-6.82-5.9-11.66-5.94-11.48-.09-22.97-.41-34.44-.04-7.74.25-11.49,4.41-11.88,12.51-.36,7.47-.07,14.97-.18,22.46-.04,2.98-.15,5.99-.66,8.92-.49,2.84-2.78,3.89-5.48,3.99-2.77.1-5.08-1.05-5.68-3.75-.65-2.88-.73-5.93-.75-8.9-.07-14.98-.03-29.96-.02-44.94,0-13.98-.04-27.96.03-41.94.02-3.48.08-7.02.68-10.43.57-3.16,2.89-5.17,6.1-5.81,1.46-.29,2.98-.38,4.47-.38,15.48,0,30.96.04,46.43.04,8.31,0,15.61,3.74,22.53,7.38,8.76,4.62,14.01,20.01,11.46,30.41-1.54,6.32-3.85,12.4-8.07,17.54-2.51,3.05-3.01,6.42-.65,9.62ZM298.08,0C133.46,0,0,133.46,0,298.08v1429.92h3002.4c164.63,0,298.08-133.45,298.08-298.08V0H298.08Zm1713.8,122.43c2.98-.19,5.99-.11,8.98-.11,108.88,0,217.76.22,326.64-.29,12.95-.06,19.75,4.37,25.3,15.8,23.15,47.56,47.14,94.71,70.84,142.01,17.65,35.24,35.37,70.45,52.99,105.71,9.14,18.3,18.11,36.69,27.16,55.04,1.32,2.68,2.38,5.53,4,8.01,4.24,6.51,10,6.56,14.02-.06,10.36-17.05,20.47-34.25,30.74-51.36,15.4-25.65,30.85-51.28,46.28-76.91,22.88-38.03,45.74-76.07,68.65-114.07,11.32-18.78,22.74-37.51,34.12-56.26,3.86-6.37,7.74-12.74,11.6-19.11,3.69-6.1,8.88-9.15,16.19-8.52,3.47.29,6.99,0,10.48,0,106.88,0,213.76,0,320.64,0,4.49,0,9.01-.08,13.47.35,5.47.53,7.59,4.89,4.76,9.74-5.51,9.46-11.21,18.82-16.86,28.21-26.97,44.82-53.9,89.68-80.96,134.45-19.85,32.84-39.88,65.57-59.86,98.33-1.29,2.11-2.74,4.16-4.32,6.06-2.43,2.92-5.6,4.08-9.36,3.16-1.45-.36-2.86-.89-4.3-1.31-17.9-5.17-36.16-7.23-54.77-6.51-5,.2-9.96-.41-14.77-2.03-21.34-7.19-43.29-7.35-65.14-4.05-13.79,2.09-27.09,6.99-39.44,13.72-4.87,2.65-9.68,4.92-15.07,6.3-11.83,3.03-22.14,8.63-30.56,17.83-8.09,8.83-16.73,17.16-25.29,25.54-10.45,10.24-15.95,23.16-17.87,37.11-1.26,9.19-4.93,14.4-13.3,17.72-35.65,14.13-54.56,41.88-62.31,78.23-1.76,8.25-3.46,16.56-3.25,25.18.22,8.57.23,16.91,5.99,24.11,2.57,3.21,2.74,7.37,3.06,11.4.48,5.97,1.43,11.9,1.91,17.87.73,9.01,2.88,17.59,5.63,26.23,2.56,8,2.94,16.68,6.49,24.51.41.9.35,2.06.88,2.85,8.06,11.86,9.45,26.06,13.88,39.2,1.74,5.18,3.71,10.37,6.3,15.16,3.91,7.25,9.48,12.86,18.13,14.28,4.05.66,7.39,2.58,10.75,4.9,5.31,3.68,10.81,7.16,17.28,8.73,1.84.45,3.61,1.67,5.14,2.88,8.86,6.98,9.83,12.28,2.75,21.35-3.96,5.08-5.74,10.31-5.6,16.54.11,4.99-.04,9.98-.04,14.98-.01,107.88,0,215.76-.01,323.64,0,5.49.09,11-.25,16.47-.36,5.57-2.99,8.32-8.24,8.86-3.46.35-6.98.22-10.48.22-92.39.01-184.79.01-277.19-.01-3.99,0-8,0-11.96-.42-3.33-.36-5.36-2.62-5.72-5.95-.33-2.96-.34-5.98-.34-8.97-.02-43.95-.02-87.9.03-131.85,0-4.28-.19-8.64,1.43-13.9,9.76,10.15,15.24,20.81,16.26,33.62.36,4.48.89,8.97.82,13.45-.12,8.11,4.35,13.61,10.95,16.4,6.68,2.81,13.79,1.78,19.4-3.83,12.32-12.32,25.53-23.86,32.48-40.59,2.49-6,7.15-10.54,12.17-14.9,19.77-17.13,31.88-39.17,40.19-63.7,5.51-16.25,7.49-33.02,8.96-49.9.57-6.42.65-13.06-.33-19.4-1.85-12-1.7-23.81.12-35.77,2.73-18,1.71-36.14-2.85-53.53-4.03-15.38-10.69-30.08-21.45-42.42-8.51-9.75-16.36-19.99-24.16-30.34-10.43-13.84-23.2-26.17-37.24-36.65-10.99-8.2-23.59-12.86-37.57-13-3.5-.04-7-.25-10.49-.21-5.11.07-8.22-2.09-10.12-7.05-3.03-7.94-6.95-15.44-13.72-21.08-6.2-5.16-12.78-9.16-20.76-11.31-14.44-3.9-28.61-8.77-43.01-12.84-6.28-1.78-10.4-5.46-13.32-11.07-11.47-22.12-23-44.22-34.58-66.29-17.15-32.66-34.42-65.26-51.55-97.93-7.18-13.7-14.08-27.55-21.21-41.27-24.6-47.35-49.29-94.66-73.88-142.01-11.72-22.57-23.25-45.24-34.97-67.82-14.47-27.87-29.05-55.69-43.59-83.53-.93-1.76-2.02-3.45-2.86-5.25-4.07-8.82-2.21-12.2,7.06-12.79Zm953.01,440s.02,0,.03.01c5.92,1.96,6.73,6.56,6.09,11.9,5.75,2.16,6.7,6.69,5.93,12.06,7.24,3.86,9.52,10.21,9.01,17.97,6.37,2.17,7.3,8.87,10.9,13.35.61.77.05,2.85-.5,4.08-.58,1.3-1.66,2.49-2.78,3.42-9.66,8-9.28,18.07-4.96,28.19,2.82,6.61,4.28,13.06,3.34,20.1,0,0,0,0,0,.01.32,1.96.18,4.15,1.04,5.83,4.29,8.44,5.64,16.3.44,25.39-3.13,5.49-1.56,12.78-.43,19.16,4.02,22.71,14.17,42.36,30.17,59,3.11,3.23,6.27,6.43,9.12,9.88,2.44,2.96.54,7.36-3.2,7.99-.97.16-1.97.4-2.94.35-25.4-1.32-50.66-3.85-75.47-9.6-6.27-1.45-11.44-2.18-15.89,3.97-3.85,5.33-10.1,4.32-15.21,2.66-11.84-3.82-24.04-6.71-35.21-12.47-2.21-1.14-4.52-2.14-6.62-3.47-5.81-3.68-10.57-3.58-15.97,1.65-5.04,4.88-9.05,4.59-14.62.1-8.95-7.23-18.63-13.33-28.32-19.43-4.2-2.65-8.44-5.36-12.97-7.33-13.84-6.02-26.24-14.06-37.12-24.56-6.34-6.12-8.16-5.91-15,.03-11.32,9.82-19.02,21.63-20.9,36.84-1.32,10.65.94,20.93,4.1,30.8,1.9,5.92,3.16,12.79,8.98,16.88h.01c.92,2.83,1.99,5.61,2.72,8.47.85,3.36-1.34,6.16-4.67,5.92-2.43-.18-5.03-.42-7.2-1.42-12.67-5.82-25.26-11.71-34.58-22.78-4.47-5.32-9.73-9.97-14.55-15-2.8-2.92-5.78-5.62-9.82-6.49-7.04-1.52-12.67-5.62-18.34-9.65-2.42-1.72-4.5-4.21-7.6-4.46-11.49-.96-16.01-9.12-18.76-18.54-4.97-16.98-6.54-35.08-17.14-50.14-.56-.8-.9-1.81-1.1-2.77-3.6-17.97-10.61-35.39-9.28-54.15.67-9.38-1.37-17.46-8.6-23.74-.06.06-.12.11-.18.17-.05-.16-.1-.31-.16-.47-.46-7.74-.43-15.36,1.51-23.04,1.16-4.59.92-9.52,1.11-14.35.02-.51.04-1.02.07-1.52,1.62-4.17,3.28-8.34,4.86-12.53,9.72-25.73,27.12-43.6,53.49-52.27,2.83-.93,5.79-1.46,8.61-2.42,4.65-1.58,7.58-4.65,7.77-9.82.07-1.99.13-3.98.18-5.98.44-18.48,7.09-33.96,22.48-44.85,4.21-2.97,7.22-6.71,10.21-10.72,8.67-11.64,20.41-18.96,34.25-22.59,5.92-1.55,11.24-3.79,16.27-7.15,2.88-1.92,6-3.67,9.25-4.84,24.04-8.63,48.64-9.49,73.58-4.91,8.31,1.53,16.46,4.59,24.98,4.15,17.09-.87,33.83.62,50.16,5.79,11.23,3.56,23.02,6.02,31.6,15.15-.06.07-.12.13-.19.18.1-.02.19-.04.29-.07l.06.03.03.06v-.06c1.45.1,3.11-.24,4.32.36,18.02,8.87,33.52,21.18,47.74,35.23.46.46.9.93,1.29,1.42.54.83,1.09,1.64,1.66,2.43,13.39,18.83,34.19,29.47,48.1,47.21,2.66,3.4,7.5,5.99,5.42,11.27-2.25,5.72-7.51,8.03-13.17,8.21-20.79.67-41.3,4.75-62.13,4.74-23.21-.02-23.23.08-15.58,21.18Zm-846.07,474.68c2.03-7.47-.41-13.59-4.9-19.29-3.75-2.65-2.26-5.96-1.4-9.38,3.91-15.43,7.42-30.96,11.61-46.31,1.89-6.97.53-11.65-6.24-14.54-1.34-.57-2.5-1.64-3.58-2.65-3.31-3.08-3.82-6.57-1.47-10.77,8.99-16.06,18.23-32,27-48.18,5.67-10.46,10.97-21.14,15.9-31.97,3.61-7.94,3.02-9.66-3.59-15.59-7.55-6.79-16.21-11.11-26.52-12.65-12.46-1.85-24.73-1.58-37.1.35-3.5.55-6.66,1.53-9.85,3.14-6.2,3.13-12.63,5.84-19.09,8.39-2.99,1.18-5.86-1.67-5.78-4.91.09-3.66,1.65-6.76,3.33-9.81,6.92-12.62,13.82-25.24,20.9-37.76,7.34-13.01,13.66-26.49,19.35-40.29,3.07-7.43,7-14.25,13.09-19.77,4.42-4.01,8.37-8.53,12.52-12.82,0,0,.01,0,.01-.01,3.67-7.4,11.15-9.96,17.96-11.36,6.86-1.41,11.55-4.66,16.04-9.3,3.02-3.13,5.83-6.83,10.99-6.31,1.14-2.73,3.36-3.29,6.01-2.97,3.38-4.18,7.63-6.28,12.75-6.28.68,0,1.37.04,2.08.11l.05-.02c5.42-4.79,12.42-6.26,18.98-7.62,5.29-1.1,10.65-1.8,16.04-2.38,5.39-.58,10.81-1.06,16.19-1.69,0,0,.08-.03.09-.03,1.96-1.03,3.92-2.05,5.88-3.07,2.38-2.19,5.07-3.19,8.2-1.81,15.11,6.66,31.22,10.29,46.8,15.49,4.72,1.57,9.64,2.53,14.5,3.61,14.6,3.26,23.7,12,26.89,26.72,3.45,15.88,3.9,16.52,19.44,14.74,9.13-1.04,17.9.43,26.72,1.88,10.75,1.76,19.48,7.17,26.64,15.4,3.58,4.12,7.58,7.9,11.63,11.57,7.44,6.75,14.12,14.01,18.85,23.01,4.49,8.54,11.63,14.88,18.77,21.16,5.15,1.81,7.46,6.27,9.92,10.6,9.02,15.9,14.37,32.83,14.21,51.28-.09,11.45.33,22.89-2.08,34.28-1.11,5.24-.99,11.04-.09,16.37,2.86,16.97,2.2,33.88-.88,50.58-4.97,26.86-15.48,51.39-33.3,72.43-2.91,3.43-6.13,6.85-11.02,7.09-1.03.05-1.91.24-2.65.54-2.26.88-3.38,2.76-4.31,5.01-.28.68-.55,1.39-.82,2.12-5.1,13.65-12.43,26.07-21.9,37.17-2.9,3.4-5.86,6.84-10.08,8.77-3.95,1.8-8.19-.5-8.89-4.88-.23-1.47-.15-2.99-.35-4.47-1.65-12.87-3.85-25.24-11.86-36.42-6.04-8.41-9.54-18.63-9.09-29.58.12-2.95.2-6.06-2.67-8.11-1.22-1.93-3.11-2.67-5.09-1.85-11.96,5-23.44,10.67-32.55,20.41-6.78,7.24-13.77,14.33-22.44,19.56-9.37,5.65-11.99,5.73-18.16-3.01-3.17-4.5-7.01-5.69-11.53-4.3-15.14,4.67-31.18,6.51-45.36,14.23-3.16,1.73-6.11,2.9-9.85,1.22-4.4-1.97-8.43-.72-12.67,1.7-8.59,4.92-17.21,10.29-26.51,13.37-11.39,3.76-19.66,11.46-28.53,18.54-5.43,4.33-10.22,9.46-15.3,14.24-2.17,2.04-4.29,4.06-7.44,4.69-3.08.61-6.9-.9-7.04-3.75-.39-8.23-3.65-15.37-7.36-22.46-1.9-3.63-1.94-7.69-1.91-11.68.08-9.95-.73-19.98,1.91-29.72Zm-163.94-602.25c3.61,4.92,7.25,9.48,5.97,16.18-1.08,5.7,2.27,9.11,6.44,12.45,13,10.45,22.93,23.52,31,38.02,2.2,3.96.45,7.29-3.85,7.17-8.47-.23-16.96-.59-25.38-1.51-4.52-.49-8.9-1.03-13.32.22-9.26,2.63-18.62,2.64-28.12,1.64-5.94-.63-11.96-.67-17.95-.66-3.98,0-6.61,3.06-5.95,6.86.51,2.9,1.57,5.73,2.57,8.52,4.21,11.73,8.7,23.35,12.63,35.17,1.71,5.16,2.41,10.68,3.38,16.07,1.37,7.53.15,13.54-8.21,16.8-5.63,2.2-7.77,7.41-7.17,13.52,1.64,16.84.04,33.97,4.66,50.54,1.02,3.66.57,7.11-3.02,9.15-6.13,3.5-7.04,9.06-6.96,15.39.34,27.44,6.89,53.27,19.78,77.5,2.03,3.81,5.72,6.99,4.85,11.89-1.9,1.47-3.96,1.35-5.86.88-12.12-2.94-24.31-5.63-36.27-9.14-10.5-3.08-20.75-7.01-31.05-10.76-6.22-2.26-12.2-4.14-18.67-.46-3.77,2.14-7.9,1.02-11.41-1.12-13.6-8.28-28.18-15.12-39.46-26.84-1.7-1.77-3.74-3.34-5.87-4.55-3.21-1.82-6.63-2.24-9.81.26-1.57,1.24-2.96,2.71-4.6,3.82-4.24,2.88-6.36,2.84-10.8-.32-2.85-2.01-5.72-4.06-8.23-6.46-19.42-18.64-39.86-36.29-55.72-58.36-5.54-7.7-9.38-8.2-17.77-3.53-16.37,9.14-28.21,22.07-32.68,40.67-2.49,10.32-1.8,20.81.18,31.2.74,3.91,1.65,7.82,2.04,11.78.45,4.58-3.82,7.21-8.04,5.02-2.18-1.12-4.27-2.58-6.09-4.23-9.31-8.45-17.42-17.84-22.71-29.42-1.45-3.17-3.18-6.21-4.74-9.33-2.54-5.1-6.12-9.02-11.61-11.07-7.6-2.83-14.23-7.13-19.54-13.37-.96-1.12-2.07-2.43-3.38-2.89-8.3-2.93-10.25-9.66-11.93-17.38-2.07-9.46-1.35-18.88-1.58-28.32-.16-6.44.81-12.99-4.62-18.22-2.21-2.13-1.97-5.49-2.31-8.48-2.52-22.36-3.3-44.72.1-67.07.77-5.08.62-9.95-2.69-14.26-2.62-3.39-3.36-7.31-2.37-11.34,6.49-26.51,18.88-49.25,42.24-64.73,11.5-7.62,24.15-11.71,38.07-11.5,1.49.03,2.99.02,4.49-.04,10.15-.41,10.91-1.04,13.36-10.41,1.14-4.33,2.35-8.65,3.58-12.96,3.63-12.68,11.64-22.14,22.81-28.49,5.75-3.27,10.66-7.16,15.36-11.65,10.82-10.32,23.36-16.77,38.73-16.91,3.42-.03,7.02-.68,10.22-1.89,24.33-9.18,48.81-7.99,73.35-1.26,12.01,3.29,23.95,6.91,35.16,12.52,3.66,1.83,7.6,2.23,11.55,2.87,29.95,4.88,55.56,18.29,77.1,39.59,10.65,10.52,21.22,21.09,30.12,33.23ZM785.35,124.85c3.98-.29,7.98-.25,11.97-.25,98.9,0,197.8,0,296.69-.02,20.67,0,18.72-.64,25.06,17.78,10.84,31.49,21.73,62.96,32.48,94.48,9.95,29.19,20.58,58.14,30.73,87.26,6.71,19.26,13.11,38.62,19.65,57.94,10.38,30.65,20.45,61.4,31.34,91.88,11.58,32.39,22.51,65.01,33.6,97.57,8.51,24.99,16.68,50.09,25.25,75.05,9.55,27.81,19.42,55.51,29.08,83.28,1.64,4.71,2.88,9.55,4.42,14.3,1.24,3.81,2.83,7.45,5.63,10.46,3.11,3.33,7.51,2.58,9.46-1.67,7.69-16.82,13.07-34.49,19.07-51.94,8.27-24.02,16.74-47.96,24.95-72,8.04-23.57,15.71-47.26,23.84-70.79,8.28-23.99,16.96-47.84,25.41-71.77,2.66-7.5,5.15-15.07,7.74-22.6,8.4-24.44,16.84-48.88,25.22-73.33,1.94-5.65,3.75-11.34,5.48-17.05,7.33-24.26,17-47.72,24.67-71.88,7.08-22.26,15.63-44.06,23.25-66.15,7.29-21.15,14.15-42.46,21.36-63.64,4.48-13.17,9.31-26.24,13.9-39.38,1.9-5.44,5.57-7.98,11.33-7.75,3.49.13,6.99-.04,10.49-.04h296.69c3.5,0,7-.08,10.49.09,6.63.32,8.61,3.31,6.4,9.88-7.34,21.86-14.76,43.68-22.16,65.51l-.78,2.31h0s-2.85,18.21-2.85,18.21c-.35,1.02-.71,2.04-1.06,3.05-6.48,18.69-13.01,37.37-19.4,56.08-4.99,14.63-9.7,29.35-14.71,43.96-3.63,10.57-7.57,13.78-17.59,10.19-13.91-4.99-28.39-4.88-42.53-7.43-3.37-.61-7.12-.93-10.36-.1-6.39,1.65-12.85,1.54-19.29,2.14-1.98.19-4.24-.13-5.91.7-10.48,5.23-22.15,5.34-33.22,7.99-12.46,2.97-22.9,9.53-32.23,18-4.43,4.03-8.88,7.82-14.13,10.9-12.84,7.54-22.13,18.33-27.15,32.54-.84,2.36-1.73,4.68-2.64,7.01-2.41,6.16-6.78,9.2-13.52,9.97-33.28,3.82-56.76,22.03-73.02,50.55-6.46,11.33-11.02,23.45-14.29,36.03-1.77,6.8-2.59,13.85.72,20.48,2.59,5.19,2.53,10.64,2.24,16.1-1.15,21.96-.48,43.86,1.98,65.71.45,3.93.32,8.3,2.06,11.64,3.64,7.01,4.17,14.3,3.93,21.8-.33,10.61,2.04,20.76,4.44,30.97,1.69,7.23,4.91,12.93,12.19,15.81,3.19,1.26,6.63,2.54,7.47,6.6,4.06,2.84,7.8,6.06,12.49,8.06,7.12,3.03,11.84,8.38,15.27,15.54,6.06,12.66,14.61,23.67,25.14,33.06,1.86,1.66,3.62,3.44,6.34,3.52,1.1,1.74,2.36,3.23,3.75,4.53,4.85,4.51,11.22,6.66,17.37,8.52,11.8,3.57,24.85-6.83,21.95-20.32-.73-3.39-2.02-6.67-3.19-9.96-4.1-11.56-4.49-23.43-3.1-35.46,1.24-10.68,7.42-18.31,15.45-24.66,2.53-1.99,5.94-2.27,8.28.14,5.9,6.07,11.58,12.37,17.06,18.82,2.03,2.38,1.77,5.76,1.11,8.66-1.1,4.86-2.46,9.68-4.06,14.39-8.93,26.41-17.81,52.85-27.03,79.16-7.9,22.55-16.56,44.84-24.28,67.45-9.82,28.76-18.83,57.8-28.59,86.58-7.18,21.2-14.71,42.29-22.71,63.19-2.34,6.1-3.74,12.39-5.84,18.51-13.09,38.16-25.83,76.45-39.28,114.49-4.81,13.62-10,27.08-13.83,41.02-.65,2.38-2.2,4.51-2.91,6.88-2.55,8.52-8.13,11.97-16.92,11.13-4.45-.43-8.98-.05-13.47-.05-109.82.01-219.64.01-329.45.01-3.5,0-7.02-.31-10.48.04-8.46.85-13.15-3.72-15.83-10.88-3.13-8.4-5.82-16.96-8.76-25.43-8.84-25.41-17.72-50.81-26.57-76.23-.65-1.88-1.07-3.85-1.77-5.72-2.35-6.29-1.23-11.48,3.95-16.12,11.93-10.67,23.04-22.07,31.44-35.89,3.42-5.62,9.23-8.99,14.06-13.27.41.01.8,0,1.18-.05,3.32-.37,5.47-2.83,7.49-5.14,4.62-5.23,9.33-10.45,13.34-16.14,15.98-22.62,28.17-46.71,32.12-74.76,2.32-16.46,4.27-32.59,1.26-49.09-.5-2.75.45-5.94,1.33-8.75,5.64-18.13,3.25-36.6,2.51-55-6.9-23.02-15.05-45.45-31.2-63.92-4-4.57-7.03-9.33-9.07-15.19-4.37-12.53-13.18-22.17-22.69-31.12-3.99-3.75-8.72-6.81-12.26-10.93-11.91-13.82-27.74-18.83-44.98-20.98-1.98-.24-3.99-.22-5.97-.45-6.85-.8-11.72-3.41-14.71-10.6-4.31-10.37-12.71-17.74-22.53-23.04-4.79-2.58-10.06-4.57-15.35-5.85-20.41-4.93-39.89-12.38-59.18-20.5-7.99-3.37-16.27-4.05-24.87-1.45-5.58,1.69-9.75-.95-11.32-6.44-11.78-41.23-27.71-81.06-40.94-121.8-10.01-30.79-21.16-61.21-31.7-91.83-11.85-34.4-23.58-68.84-35.38-103.26-10.98-32.06-21.94-64.11-33.01-96.14-5.69-16.46-11.61-32.83-17.35-49.27-.81-2.33-1.41-4.78-1.69-7.22-.5-4.24,1.56-6.93,5.54-7.22Zm-12.8,650.4c5.11-12.02,12.64-22.56,20.85-32.65,9.13-11.23,17.93-22.92,23.64-36.16,6.82-15.82,17.14-27.8,31.85-36.32-2.16-.08-4.31-.15-6.47-.23,4.47-6.24,11.56-7.57,18.23-8.29,6.96-.75,11.85-3.75,16.34-8.67,3.29-3.6,7.25-6.58,10.9-9.84,3.02.04,6.04.07,9.07.1,14.99-6.61,31.24-5.95,47.02-7.87,6.02-.73,11.77-.74,16.42-5.6,2.63-2.75,6.4-2.25,9.87-1.03,4.71,1.65,9.5,3.11,14.14,4.93,3.04,1.19,6.08,2.35,9.14,3.47,13.34,4.86,26.88,9.05,40.56,12.89,13.51,3.79,22.58,11.89,24.12,26.99.99,9.67,3.46,11.45,13.69,11.76,8.98.27,17.92.77,26.88,1.64,9.51.93,17.07,4.96,23.73,11.4,4.66,4.51,9.45,8.88,14.19,13.31.29.83.59,1.65.9,2.47.74,1.21,1.81,2.2,2.82,3.23t.02.01c4.84,3.05,8.39,7.56,10.29,12.76.05.14.1.28.16.42.73,1.36,1.33,2.77,1.8,4.23.04.14.09.27.14.41h0c6.12,13.26,16.03,23.98,23.37,36.32,0,.01.02.03.02.04.05.07.09.14.13.21,2.68,4.06,4.96,8.3,6.94,12.68,9.43,18.86,15.11,39.04,10.72,60.94-1.59,7.95-3.09,15.86-3.9,23.8,0,.01,0,.02,0,.03-.12,10.37.53,20.77.07,31.12,0,.06,0,.13,0,.19-.28,22.48-6.46,43.11-16.87,62.5l-.07-.13c-6.79,12.43-15.61,23.95-26.46,34.53-.36.35-.66.83-1.08,1.03-11.46,5.38-17.16,15.93-23.88,25.78-5.32,7.79-11.16,15.36-18.46,21.56-1.51,1.28-3.02,2.61-4.68,3.68-3.13,2.02-7.58.44-8.36-3.21-.84-3.87-1.43-7.88-1.45-11.84-.05-8.59-1.45-16.64-5.03-24.65-4.28-9.59-5.19-20.22-6.95-30.53-.51-3.01-1.05-5.83-3.17-8.2-2.93-3.25-6.4-5.03-10.65-3.43-12.59,4.74-25.21,9.4-35.34,18.84-4.74,4.41-9.85,8.44-14.82,12.6-3.49,2.92-7.34,5.23-11.85,6.1-3.11.61-6.36.24-7.49-3.19-2.49-7.61-7.3-7.93-14.12-6.08-14.88,4.02-30.4,5.43-44.88,11.24-5.14,2.07-10.78,2.66-15.98-.22-5.65-3.12-10.72-1.06-15.62,1.53-8.77,4.64-17.78,9-26,14.51-13.63,9.13-29.03,15.47-41.5,26.41-1.46,1.28-3.39,2.1-5.22,2.87-2.18.91-4.44.02-4.57-2.15-.36-6.07-2.75-11.58-4.02-17.38-1.06-4.8-1.82-9.66-.81-14.81,2.03-10.26.47-20.94,3.34-31.18.81-2.91.38-6.1-1.55-8.6-4.66-6.03-2.97-11.96-.7-18.37,4.65-13.12,8.93-26.37,12.98-39.68,3.33-10.92,2.67-12.37-5.98-18.97-1.18-.9-2.65-1.44-3.78-2.39-2.08-1.77-2.94-4.1-1.61-6.65,1.6-3.09,3.44-6.06,5.25-9.04,6.21-10.22,12.44-20.44,18.71-30.63,9.79-15.9,13.53-34.29,21.05-51.12,1.14-2.55.52-4.98-1.21-6.95-2.29-2.62-4.5-5.57-7.37-7.4-16.31-10.37-33.71-17.66-53.57-14.58-8.83,1.38-16.92,5.66-25.14,9.21-3.77,1.62-8.05,6.78-11.76,2.55-3.33-3.79,1.35-8.32,3.02-12.25ZM369.58,138.79c.02-14.22,1.04-15.11,15.48-15.11,93.88-.05,187.76-.02,281.64,0,2.5,0,5.01-.02,7.48.22,4.04.4,6.34,2.54,6.58,6.72.35,5.97.33,11.97.33,17.97.01,171.78.01,343.56.01,515.34s0,343.56-.02,515.34c0,5.99,0,11.99-.42,17.96-.27,3.93-2.78,6.15-6.89,6.56-3.46.34-6.97.33-10.47.34-91.88.01-183.76.01-275.64,0-3.5,0-7.01.06-10.48-.27-4.83-.46-6.97-2.68-7.36-7.78-.35-4.47-.3-8.98-.3-13.47,0-132.83.17-265.66-.27-398.49-.05-13.6,2.07-24.26,14.63-31.47,5.56-3.19,10.09-8.11,15.32-11.92,4.23-3.09,7.98-2.2,9.71,2.3,4.8,12.51,11.89,24.05,14.72,37.45,1.33,6.33,2.86,12.61,3.74,19.03.47,3.46.84,6.95,1.58,10.36,3.18,14.59,16.92,19.86,28.38,10.43,11.64-9.57,21.1-21.29,29-34.04,4.17-6.72,8.88-13.28,11.25-21.04,1.5-4.92,5.07-8.47,8.47-12.17,10.52-11.43,19.82-23.82,26.14-38.06,9.33-21.01,17.17-42.51,17.9-65.92.13-3.97.78-7.94,1.31-11.89,1.13-8.46,1.69-17.01.09-25.36-2.38-12.34-3.12-24.76-3.12-37.23-.01-18.02-1.3-35.9-4.71-53.61-3.65-19-10.82-36.22-24.68-50.2-3.85-3.9-7.43-7.97-10.53-12.59-8.77-13.09-19.98-23.58-34.8-29.6-3.8-1.55-7.01-3.66-9.88-6.53-10.81-10.78-23.84-16.45-39.14-15.27-13.34,1.02-22.68-2.49-27.69-16.33-3.23-8.93-11.49-14.99-18.71-21.08-6.22-5.25-8.89-11.03-8.86-19.35.28-70.41.11-140.82.21-211.23Zm-9.46,610.06c-3.93,2.08-6.58,6.49-11.31,6.94-5.45.53-7.24-4.63-10.4-7.57-3.8-3.55-8.15-3.64-12.53-1.86-13.84,5.62-28.17,10.27-40.66,18.74-4.45,3.01-8.43,4.55-13.81,2.22-4.66-2.02-9.81-1.58-14.67.04-25.61,8.51-48.03,21.77-64.65,43.62-1.5,1.98-3.09,3.91-4.81,5.7-2.7,2.82-5.63,2.24-6.79-1.25-3.49-10.51-4.28-21.51-5.39-32.39-.77-7.41-.15-14.95-.15-22.44h-.72c0-5.99-.03-11.98,0-17.96.03-5.52.12-10.9-3.81-15.59-3.07-3.65-2.64-8.42-2.72-12.91-.27-14.06,1.41-27.88,4.88-41.49.5-1.93,1.25-3.8,1.68-5.75,1.28-5.76.83-11.2-4.84-14.43-7.12-4.06-7.24-9.31-4.94-16.5,6.08-19,13.12-37.61,20.74-56.02,3.64-8.79,8.24-16.95,14.27-24.42,5.84-7.23,5.33-9.42-1.5-16.52-14.48-15.06-31.85-21.59-52.77-18.5-9.19,1.36-16.68,6.42-24.75,10.26-2.22,1.05-4.09,2.82-6.28,3.98-2.76,1.46-5.92-.84-6.11-4.19-.21-3.55.16-6.99,1.89-10.15,5.24-9.61,9.1-19.91,16.14-28.6,5.01-6.18,8.84-13.24,9.27-21.66.29-5.64,3.51-10.37,5.88-15.28,2.59-5.36,6.15-10.22,6.36-16.57.12-3.8,3.06-5.91,5.99-8.06,8.12-5.95,17.13-10.22,26.33-14.01,7.02-2.9,13.49-6.23,18.82-11.8,7.05-7.4,16.6-11.02,25.69-14.75,14.27-5.86,29.12-10.38,44.4-13.02,4.72-.82,8.6-2.26,10.62-7,1.78-4.17,5.31-5.65,9.61-5.86,22.74-1.12,44.86,1.46,65.43,11.93,14.69,7.47,25.54,18.81,32.23,33.96,1.01,2.28,1.67,4.71,2.73,6.96,2.31,4.94,5.94,7.7,11.76,7.43,6.98-.32,13.97-.18,20.96-.31,11.09-.22,20.49,4.01,28.38,11.42,4.44,4.18,9.24,7.23,14.84,9.71,12,5.31,22.77,12.47,28.55,25.01,2.39,5.17,6.72,8.63,10.55,12.52,14.63,14.88,21.87,33.03,23.37,53.55.62,8.45.21,16.97.39,25.45.33,16.47,1.98,32.81,4.55,49.08,2.44,15.45.8,30.81-1.65,46.15-3.73,23.4-10.94,45.48-23.74,65.58-4.34,6.8-9.09,13.1-16.4,17.05-5.18,2.79-7.24,7.34-8.69,13.1-4.77,19.02-16.62,33.72-30.6,46.87-1.94,1.81-5.38.82-6.06-1.75-1.03-3.84-1.86-7.74-2.5-11.66-2.11-12.89-5.94-25.19-11.74-36.9-2.91-5.87-4.13-12.2-4.89-18.71-.82-6.92-1.93-13.85-3.6-20.61-1.33-5.37-6.01-6.6-10.43-3.08-16.4,13.05-32.71,26.2-49.04,39.33-1.17.94-2.08,2.29-3.36,2.97Zm2749.66,841.43c-.28,12.7-.5,12.97-13.83,13.64-4.99.25-9.99.24-14.98.24-896.15,0-1792.3.01-2688.44-.02-5.99,0-11.98-.22-17.94-.67-3.37-.26-5.37-2.55-5.65-5.93-.28-3.47-.36-6.97-.36-10.46-.02-88.92-.04-177.84,0-266.75,0-17.43.11-17.44,17.44-17.52,6.5-.03,12.99,0,19.49,0h1335.23c448.07,0,896.14,0,1344.22.02,5.99,0,11.99-.02,17.96.38,4.04.26,6.18,2.67,6.56,6.85.31,3.47.31,6.98.31,10.47.01,88.42.01,176.84.01,265.25,0,1.5.01,3-.02,4.5Zm-85.73-371.66c-58.13,3.9-102.43-40.46-103.71-92.33-1.36-55.13,39.29-95.9,89.36-99.52,52.01-3.77,100.93,35.54,101.39,92.7,3.49,58.35-43.55,96.23-87.04,99.15Zm21.05-120.9c-.39,7.97-6.93,16.08-15.08,18.67-12.64,4.02-25.63,3.42-38.59,2.69-4.53-.25-7.71-3.07-8.29-7.31-1.29-9.42-1.09-18.94-.18-28.37.48-4.95,3.91-7.55,9.2-8.2.99-.12,2-.13,2.99-.13,4-.02,7.99-.01,14.97-.01,4.96.18,12.95-.67,20.71,2.25,9.46,3.56,14.75,10.78,14.27,20.41Zm-489.62,275.85c-14.86-11.09-31.71-16.6-50.17-16.79-23.45-.24-46.89-.16-70.34-.09-17.11.06-17.95.82-18.01,17.54-.12,29.43-.04,58.86-.04,88.29h0c0,28.43-.02,56.87,0,85.3.01,4.48-.05,8.99.38,13.45.52,5.53,3.13,8.09,8.54,8.63,3.46.35,6.97.27,10.46.27,18.96.02,37.92-.36,56.86.14,13.18.35,25.77-2.08,38.32-5.43,9.83-2.62,18.33-7.52,25.98-14.23,15.6-13.68,24.57-31.2,29.66-50.88,6.6-25.56,7.39-51.3.16-76.85-5.55-19.58-15.09-36.88-31.8-49.35Zm2.91,104.6c-1.46,20.57-8.36,38.71-24.41,52.71-7.48,6.53-16.22,10.29-25.68,10.75-16.42.79-32.9.44-49.35.18-7.62-.12-10.7-3.46-11.29-10.97-.28-3.47-.18-6.98-.19-10.47-.01-19.94,0-39.89-.01-59.83,0-19.45,0-38.9.01-58.34,0-3.49-.07-6.99.19-10.47.37-5.03,2.49-7.82,7.12-7.99,18.42-.67,37.03-2.17,55.21,1.23,21.71,4.05,36.39,17.21,43.59,38.46,3.24,9.55,5.15,19.23,5.03,29.32-.11,8.47.38,16.98-.22,25.42Z"/>
  </g>
</svg>