<?xml version="1.0" encoding="UTF-8"?>
<svg id="Layer_2" data-name="Layer 2" xmlns="http://www.w3.org/2000/svg" viewBox="0 0 1894.48 2841.19">
  <defs>
    <style>
      .cls-1 {
        fill: #f4f4f5;
        stroke-width: 0px;
      }
    </style>
  </defs>
  <g id="Layer_1-2" data-name="Layer 1">
    <path class="cls-1" d="m948.27,2841.19c-5.85-2.58-7.65-7.54-10.35-11.57-37.2-55.61-74.7-111.02-111.35-166.99-143.08-218.48-280.16-440.65-408.7-668.02-85.75-151.68-167.2-305.61-240.32-463.83-44.61-96.52-85.77-194.47-119.41-295.43-17.99-53.99-33.43-108.66-44.78-164.5-12.53-61.61-15.76-123.61-11.7-186.26,6.17-95.38,26.29-187.64,60.68-276.74,50.95-132.01,127.61-246.98,229.78-344.93,84.16-80.69,180-143.68,287.3-189.09,63.08-26.7,128.41-46.05,195.83-58.5,35.87-6.62,72-10.88,108.3-13.7,18.9-1.47,37.93-1.29,56.91-1.54,34.48-.45,68.95.63,103.23,4.24,42.66,4.49,84.94,11.56,126.66,21.74,138.89,33.89,264.22,95.44,374.72,186.09,158.48,130.01,264.72,294.27,318.37,492.24,11.76,43.4,19.63,87.56,25.02,132.24,5.52,45.76,6.8,91.62,5.64,137.58-.89,35.04-6.95,69.49-13.98,103.74-15.49,75.45-38.92,148.57-65.57,220.71-38.59,104.48-83.89,206.07-132.33,306.3-71.27,147.47-149.08,291.46-230.41,433.58-121.3,211.95-249.86,419.43-383.73,623.64-36.13,55.11-73.07,109.7-109.66,164.51-3.27,4.9-6.76,9.66-10.13,14.46Zm-1.78-1445.3c277.16.23,496.97-223.67,498.79-493.24,1.86-275.53-215.93-498.6-489.07-503.04-281.65-4.58-501.91,219.11-507.01,486.47-5.47,286.78,223.6,509.71,497.29,509.81Z"/>
  </g>
</svg>