<?xml version="1.0" encoding="UTF-8"?>
<svg id="Layer_2" data-name="Layer 2" xmlns="http://www.w3.org/2000/svg" viewBox="0 0 3070.17 2876.38">
  <defs>
    <style>
      .cls-1 {
        fill: #f4f4f5;
        stroke-width: 0px;
      }
    </style>
  </defs>
  <g id="Layer_1-2" data-name="Layer 1">
    <path class="cls-1" d="m2150.52,2738.06c-5,2.22-9.12,3.88-13.09,5.84-63.36,31.21-129.46,54.69-198.59,69.2-30.25,6.35-60.78,11.03-91.66,13.87-27.43,2.52-54.85,3.27-82.3,3.3-233.79.18-467.58.1-701.38.1-31.98,0-63.95-.88-95.72-4.55-46.63-5.38-92.59-14.51-137.63-27.8-93.66-27.63-180.01-70.41-260.03-126.21-80.4-56.07-151.29-122.47-214.3-197.39-84.13-100.04-151.48-210.58-205.03-329.63-52-115.61-89.78-235.76-114.79-360.03-10.94-54.37-19.55-109.08-25.54-164.17C4.23,1563.46.15,1506.15.04,1448.65c-.06-33.97-.13-67.94.49-101.9.74-40.46,4.25-80.76,8.19-121.04,6.03-61.67,15.29-122.83,27.83-183.48,41.55-200.95,114.23-389.34,227-561.51,51.09-78,109.3-150.15,176.62-214.82,101-97.03,215.46-172.72,348.12-219.5,44.27-15.61,89.55-27.27,135.92-34.95C970.63,3.76,1017.29.06,1064.31.07,1298.1.11,1531.89.17,1765.68,0c36.03-.03,71.93,2,107.58,6.57,76.58,9.82,150.37,30.24,221.32,60.79,101.46,43.69,191.7,104.48,272.98,178.93,96.22,88.13,175.03,190.12,240.32,302.77,78.66,135.71,134.23,280.59,171.07,432.85,15.27,63.12,27.07,126.91,35.17,191.31,4.43,35.15,7.36,70.5,10.29,105.82,5.22,62.78,5.76,125.71,5.67,188.67-.17,131.38.09,262.77-.14,394.15-.07,39.99.98,79.93,3.66,119.8,2.89,42.84,7.53,85.51,13.62,128.05,10.98,76.71,27.29,152.23,48.78,226.63,29.43,101.91,67.91,200.29,116.42,294.67,14.83,28.85,29.76,57.66,44.64,86.49,9.11,17.63,13.87,36.2,13,56.21-2.38,55.07-45.95,95.88-91.88,100.83-8.42.91-16.9,1.73-25.36,1.74-152.36.1-304.73.05-457.09.08-57.36.01-113.33-8.37-167.51-27.54-61.51-21.75-116.3-54.75-164.53-98.67-4.04-3.68-8.05-7.4-13.19-12.12Zm-143.84-1321.82c-1.05-28.95-2.18-57.89-3.15-86.84-1.94-57.97-7.97-115.58-16.26-172.92-9.15-63.26-21.93-125.83-38.35-187.63-34.93-131.43-85.04-256.62-154.19-373.89-62.07-105.26-136.72-200.38-228.73-281.33-58.77-51.7-122.66-95.79-193.07-130.33-93.11-45.68-191.27-71.23-294.97-75.18-45.59-1.73-90.86,1.98-135.76,9.33-69.32,11.34-135.52,32.9-198.78,63.41-83.03,40.05-156.99,93.12-223.77,156.39-78.52,74.38-143.81,159.24-198.84,252.14-80.32,135.58-135.33,281.14-170.47,434.44-15.52,67.69-26.78,136.1-33.69,205.23-4.32,43.25-8.02,86.52-8.7,130.01-.87,55.95-.69,111.86,2.79,167.77,2.36,37.9,5.74,75.69,10.46,113.33,6.34,50.52,15,100.67,25.85,150.46,19.16,87.96,45.03,173.85,78.73,257.32,47.55,117.77,108.55,227.93,187.19,327.98,60.55,77.02,129.49,145.38,209.47,202.28,84.68,60.24,176.89,103.99,278.46,127.27,34.59,7.93,69.59,13.77,104.97,15.71,55.43,3.04,110.72,1.61,165.7-8.01,41.88-7.33,82.8-17.79,122.73-32.2,83.36-30.1,159.08-73.97,228.76-128.41,89.36-69.82,164.09-153.21,227.57-246.91,63.88-94.3,114.43-195.4,153.76-302.2,51.38-139.5,81.79-283.65,94.88-431.53,4.58-51.75,7.33-103.64,7.41-155.67ZM1464.04,108.44c5.72,3.75,8.78,5.98,12.05,7.86,59.97,34.48,115.21,75.46,166.79,121.46,91.31,81.44,166.86,175.91,230.92,279.8,70.08,113.65,123.04,235.01,161.9,362.6,35.45,116.39,58.36,235.23,69.49,356.4,5.07,55.24,8.32,110.56,8.41,166.03.2,121.88.16,243.76.17,365.64.02,206.8.07,413.59-.07,620.39-.02,25.57,1.85,50.96,6.74,75.98,27.16,139.17,127.71,246.79,256.51,287.09,38.93,12.18,78.9,17.02,119.53,17.04,149.35.05,298.71.02,448.06.02,3,0,6,.06,8.99-.05,2.38-.09,5.09.4,6.62-3.52-1.61-3.42-3.38-7.49-5.41-11.43-10.95-21.3-21.91-42.61-32.97-63.86-29.77-57.16-56.21-115.81-79.41-175.92-44.7-115.83-77.02-235.01-97-357.58-9.16-56.23-15.63-112.74-19.45-169.53-2.75-40.86-3.79-81.8-3.72-122.79.24-132.87-.03-265.74.14-398.61.08-60.96-1.1-121.84-5.45-182.67-3-41.86-7.5-83.55-13.49-125.05-8.57-59.29-20.24-118.01-35.17-176.05-33.12-128.7-80.59-251.71-146-367.59-58.31-103.3-128.74-197.27-215.25-278.79-67.32-63.43-141.84-116.53-225.56-156.36-95.54-45.46-196.15-69.98-301.96-70.97-101.89-.95-203.8-.26-305.7-.26-2.23,0-4.47.32-9.71.72Zm541.95,1937.65c-.89-.17-1.77-.34-2.66-.51-1.3,3.09-2.64,6.17-3.91,9.28-9.02,22.18-17.61,44.54-27.1,66.51-55.13,127.66-124.7,246.6-214.49,353.21-63.04,74.86-133.93,141.27-214.66,196.79-22.59,15.53-46.32,29.41-69.42,44.2-2.11,1.35-6.29,1.59-4.79,6.67,4.24.16,8.69.47,13.13.47,94.88.03,189.76-.07,284.63.05,52.57.07,104.59-4.75,155.95-16.15,50.77-11.27,99.74-27.89,147.01-49.53,3.5-1.6,6.77-3.69,10.32-5.66-6.03-10.7-11.89-20.57-17.24-30.7-37.29-70.58-56.54-145.78-56.7-225.65-.22-110.86-.07-221.72-.08-332.57,0-5.47,0-10.93,0-16.4ZM429.17,1407.03c-.99-50.67,2.95-107.47,9.63-164.03,13.53-114.51,40.32-225.8,83.45-332.92,35.61-88.43,81-171.37,139.66-246.78,44.42-57.1,94.87-108.01,154.32-149.59,42.79-29.93,88.73-53.54,138.96-68.46,40.08-11.91,80.9-16.62,122.7-14.33,56.74,3.11,109.68,18.97,159.89,45.14,64.53,33.64,120.01,78.73,169.1,132.08,58.26,63.32,104.67,134.71,142.97,211.46,49.53,99.25,83.54,203.81,105.44,312.44,8.59,42.6,15.3,85.48,19.9,128.66,6.56,61.63,9.32,123.49,7.64,185.47-.82,30.44-2.06,60.91-4.46,91.25-3.62,45.79-9.7,91.32-18.05,136.5-13.16,71.25-31.44,141.15-55.93,209.39-33.05,92.09-76.19,178.99-132.87,258.92-42.71,60.24-92,114.35-150.67,159.5-47.46,36.53-99.35,64.88-156.79,82.38-40.89,12.46-82.86,18.37-125.57,15.79-44.14-2.66-86.66-13.06-127.43-30.38-53.79-22.86-101.9-54.64-145.98-92.77-63.27-54.73-114.95-119.2-158.94-190.02-50.32-81.01-88.2-167.7-116.45-258.64-21.06-67.78-36.22-136.9-46.09-207.21-9.67-68.86-14.46-138.01-14.44-213.88Zm837.22,798.99c-1.79-2.38-3.5-4.76-5.31-7.06-13.62-17.23-27.82-34.04-40.81-51.73-54.12-73.69-95.85-154.12-128.65-239.29-51.95-134.88-79.07-274.97-86.22-419-2.9-58.35-2.63-116.79,1.66-175.18,3.66-49.83,9.52-99.33,18.09-148.55,11.92-68.46,28.89-135.61,51.68-201.24,42.29-121.82,101.32-234.34,185.7-332.69,1.55-1.81,2.59-4.05,3.85-6.05-1.42-1.56-2.3-2.81-3.43-3.74-31.74-26.25-66.36-47.84-104.56-63.39-24.14-9.83-49.32-16.27-75.24-18.55-46.58-4.09-91.42,3.54-134.45,22.05-40.25,17.32-76.41,41.04-109.62,69.4-49.76,42.5-91.04,92.38-126.75,147-53.93,82.49-93.14,171.75-121.53,265.92-22.24,73.76-37.23,148.98-45.49,225.6-4.39,40.75-7.45,81.57-7.89,122.52-.78,72.49,3.52,144.68,14.01,216.5,9.4,64.31,23.32,127.56,42.65,189.6,27.9,89.54,65.66,174.59,116.84,253.39,35.54,54.72,76.64,104.73,126.14,147.53,36.14,31.24,75.7,57.05,120.31,74.54,54.56,21.39,110.33,26.08,167.17,10.35,51.74-14.31,97.86-39.4,138.87-73.96,1.06-.89,1.71-2.25,2.98-3.97Zm78.13-1505.85c-3.72,4-5.78,6.09-7.69,8.31-17.29,20.08-33.04,41.33-47.91,63.24-50.79,74.89-88.4,156.14-116.67,241.89-40.17,121.84-59.25,247.25-62.04,375.23-1.52,69.48,2.76,138.77,11.98,207.66,7.29,54.43,17.94,108.26,32.43,161.27,25.4,92.87,60.85,181.55,110.65,264.2,20.13,33.4,42.35,65.35,67.21,95.41,3.4,4.11,6.23,9.02,11.94,11.58,1.95-1.85,3.84-3.4,5.44-5.2,13.28-14.95,24.99-31.08,36.44-47.48,51.21-73.37,90.03-152.9,119.52-237.19,22.96-65.61,39.68-132.77,51.32-201.29,8.37-49.28,14.19-98.86,16.58-148.72,4.78-99.53-.08-198.58-16.9-296.97-12.9-75.46-31.84-149.25-58.53-220.99-29.36-78.94-66.91-153.69-116.2-222.21-11.64-16.18-24.31-31.6-37.57-48.75Z"/>
  </g>
</svg>