<?xml version="1.0" encoding="UTF-8"?>
<svg id="Layer_2" data-name="Layer 2" xmlns="http://www.w3.org/2000/svg" viewBox="0 0 3244.75 3244.61">
  <defs>
    <style>
      .cls-1 {
        fill: #f4f4f5;
        stroke-width: 0px;
      }
    </style>
  </defs>
  <g id="Layer_1-2" data-name="Layer 1">
    <path class="cls-1" d="m3244.75,1624.82c-1.79,900.34-737.71,1620.36-1623.91,1619.79C734.52,3244.04-3.44,2520.8.01,1614.42,3.4,722.89,733.83,0,1622.9,0c880.96,0,1621.04,715.5,1621.85,1624.82ZM695.68,550.13c9.28,12.46,1774.45,1779.12,1989.1,1990.87,2.75,2.71,5.74,5.19,9.23,8.33,3.17-3.46,5.9-6.25,8.42-9.23,143.08-168.85,242.47-360.29,296.95-574.89,15.37-60.54,26.51-121.91,33.23-183.99,3.54-32.74,4.92-65.7,7.43-98.55,3.78-49.46,1.12-98.88-1.58-148.23-2.67-48.85-8.51-97.42-16.56-145.74-11.33-68.05-27.4-134.9-48.57-200.53-55.34-171.6-140.48-327-254.88-466.25-102.37-124.6-222.6-228.82-360.28-312.83-71.28-43.5-145.8-80.54-223.71-110.59-76.4-29.47-154.69-52.57-235.12-68.35-41.62-8.17-83.46-14.9-125.62-19.25-34.74-3.59-69.59-6.13-104.57-6.99-70.98-1.75-141.72.38-212.3,8.83-35.68,4.27-71.21,9.43-106.4,16.42-73.91,14.68-146.31,34.96-217.02,61.23-156.89,58.3-298.89,141.97-426.79,249.75-3.8,3.2-7.34,6.69-10.96,10.01Zm-145.49,146.08c-2.32,2.48-4.78,4.91-7.01,7.52-68.97,80.89-128.53,168.18-177.98,262.3-74.96,142.69-124.46,293.65-147.56,453.27-6.95,48-11.87,96.18-13.55,144.6-2.48,71.45-.13,142.79,7.79,213.94,4.75,42.71,11.09,85.15,19.66,127.21,16.57,81.34,39.86,160.73,70.67,237.86,94.95,237.67,243.11,435.78,443.52,594.7,116.64,92.49,245.13,164.24,384.74,216.02,69.76,25.87,140.98,46.62,214.11,60.44,32.81,6.2,65.73,12.07,98.81,16.57,27.17,3.69,54.65,5.05,81.98,7.6,37.86,3.52,75.86,3.58,113.79,3.33,49.94-.32,99.83-2.75,149.37-9.78,30.11-4.27,60.38-7.73,90.27-13.23,64.76-11.92,128.42-28.36,190.88-49.36,169.38-56.96,322.32-143.22,459.8-257.17,6.89-5.71,13.61-11.64,19.76-16.91-666.31-666.26-1332.13-1332.03-1999.05-1998.9Zm1525.87,481.3c-25.34-27.53-381.35-382.91-391.09-390.46-.5.07-1.13-.04-1.46.22-3.5,2.81-6.96,5.66-10.41,8.53-23.14,19.29-47.65,36.25-76.77,45.47-2.14.68-3.96,2.37-6.07,3.67,1.31,3.6,2.08,6.51,3.38,9.17,9.23,18.8,18.59,37.53,27.86,56.31,1.45,2.95,2.64,6.03,4.18,9.56-9.9,3.15-18.96,5.81-27.86,8.95-4.79,1.69-8.7.94-12.5-2.19-2.31-1.9-4.83-3.54-7.27-5.29-21.93-15.69-44.01-31.16-65.71-47.15-11.04-8.14-22.17-9.97-35.09-5.05-30.27,11.52-60.75,22.5-91.13,33.73-2.8,1.03-5.67,2.02-8.24,3.5-11.8,6.82-17.37,20.69-13.41,33.51,3.5,11.32,14.21,21.3,28.19,20.17,5.38-.43,10.85-1.62,15.94-3.41,17.86-6.29,35.58-12.99,53.35-19.53,6.08-2.24,12.15-4.5,18.23-6.75,4.57-1.69,8.77-1.25,12.62,1.95,1.91,1.59,4.04,2.93,6.06,4.38,21.49,15.44,43.22,30.57,64.37,46.46,11.84,8.89,23.76,11.2,37.8,6.2,14.54-5.17,29.45-9.3,44.24-13.77,5.18-1.57,10.46-2.79,15.59-4.15,18.92,22.11,37.36,43.66,56.37,65.86-3.24,3.46-6.52,7.14-9.99,10.63-14.44,14.53-29,28.92-43.38,43.51-14.35,14.56-15.86,23.21-7.43,41.53,8.96,19.5,18.05,38.94,27.04,58.42,3.76,8.14,7.41,16.33,11.28,24.88-2.03,4.12-3.9,8.17-5.98,12.11-6.99,13.24-14.1,26.42-21.07,39.67-1.85,3.52-3.69,7.11-4.99,10.86-4.69,13.48.82,27.38,13.43,34.51,11.94,6.75,28.03,3.83,36.59-6.93,2.46-3.09,4.31-6.71,6.19-10.22,10.59-19.8,20.67-39.9,31.82-59.39,7.17-12.53,7.21-24.17,1.01-36.92-10.68-21.99-20.7-44.3-30.93-66.51-1.63-3.53-2.86-7.25-4.1-10.43,10.58-13.38,36.27-38.51,45.4-44.46,10.43,8.24,20.83,16.78,31.59,24.85,11.18,8.38,22.54,16.55,34.13,24.35,11.07,7.44,22.55,14.28,33.91,21.42-.58,4.39-.86,7.86-1.53,11.24-5.29,26.92-10.55,53.85-16.04,80.74-2.43,11.93-.88,22.52,7.24,32.24,9.28,11.1,17.82,22.83,26.59,34.35,2.37,3.12,4.4,6.5,6.56,9.71-7.34,18.66-14.46,36.75-21.55,54.85-1.45,3.71-3.15,7.39-4.07,11.25-3.29,13.87,3.59,27.76,16.45,33.4,10.36,4.54,27.46,3.85,36.66-11.32,1.54-2.54,2.81-5.29,3.91-8.06,9.55-24.12,18.85-48.34,28.59-72.38,5.01-12.36,3.4-23.32-4.81-33.66-7.14-8.99-14.07-18.16-21.03-27.29-5.12-6.71-10.13-13.5-15.05-20.07,4.06-21.3,7.92-41.87,11.99-62.4.43-2.17,2.11-4.09,3.27-6.25,25.14,9.42,50.08,16.29,75.92,19.57,22.52,2.86,44.84,2.04,66.69-4.62,6.06-1.85,12.35-3.41,17.81-8.33-1.14-1.65-2.04-3.37-3.32-4.76Zm-180.67-705.99c1.54-4.21,3.36-8.4,4.23-12.76,2.95-14.64-4.81-29.11-18.39-33.77-14.09-4.83-29.29.69-36.59,15.22-1.78,3.55-2.92,7.42-4.31,11.16-9.7,26.2-19.4,52.39-29.07,78.6-1.38,3.74-2.6,7.55-3.98,11.29-3.58,9.72-1.71,18.65,3.89,27.02,1.94,2.9,4.01,5.73,6.04,8.57,14.83,20.7,29.68,41.39,44.48,62.11,2.87,4.02,5.57,8.17,8.46,12.43-3.95,11.4-5.84,23.13-12.07,34.21-4.75-2.55-8.57-4.75-12.52-6.7-17.42-8.62-34.83-17.26-52.35-25.67-2.94-1.41-6.41-1.74-10.12-2.69-1.21,3.07-2.2,5.28-2.97,7.57-5.29,15.72-12.56,30.51-22.02,44.06-8.27,11.86-17.48,23.06-26.25,34.57-2.04,2.69-3.96,5.47-6.32,8.74,131.86,131.73,263.25,262.98,395.45,395.06,2.33-4.1,4.4-6.86,5.59-9.97,7.64-19.89,10.13-40.57,8.87-61.76-1.56-26.09-7.13-51.35-15.82-75.96-1.61-4.57-2.81-9.29-4.15-13.78,10.09-4.94,50.42-13.02,69.74-14.12,14.15,10.92,28.97,21.95,43.33,33.55,11.59,9.36,23.49,11.61,37.55,5.75,22.54-9.39,45.44-17.92,68.16-26.88,3.24-1.28,6.47-2.69,9.46-4.45,13.77-8.06,18.63-23.51,12.51-37.38-6.15-13.94-24.21-20.91-36.32-15.38-7.24,3.31-14.85,5.81-22.28,8.7-13.87,5.39-27.73,10.8-41.77,16.27-15.08-11.65-29.83-22.76-44.24-34.28-8.89-7.1-18.55-9.04-29.49-6.83-26.86,5.45-53.74,10.78-80.63,16.09-4.83.95-9.73,2.51-13.51.52-11.6-17.6-22.14-34.59-33.7-50.84-11.82-16.6-24.65-32.48-36.95-48.57,14.08-16.29,36.25-37.83,45.82-44.41,3.25,1.42,6.89,2.94,10.46,4.59,21.73,10.04,43.58,19.83,65.1,30.29,12.71,6.17,24.46,6.39,36.99-.66,20-11.25,40.47-21.66,60.71-32.47,3.08-1.64,6.23-3.27,8.97-5.39,11.15-8.64,14.27-23.95,7.62-36.36-6.36-11.88-20.11-17.98-32.92-14.25-4.26,1.24-8.41,3.1-12.36,5.16-14.15,7.38-28.35,14.69-42.22,22.59-6.74,3.84-12.47,3.99-19.55.54-21.06-10.26-42.47-19.81-63.76-29.6-5.89-2.71-11.8-5.37-17.75-7.92-6.29-2.7-12.49-2.25-18.93.05-5.9,2.11-10.26,5.98-14.5,10.26-14.42,14.54-28.88,29.05-43.36,43.52-3.48,3.48-7.13,6.8-10.78,10.27-22.05-18.96-43.54-37.44-65.56-56.37.91-3.68,1.71-7.53,2.83-11.28,5.14-17.2,10.26-34.42,15.62-51.56,3.72-11.88,1.98-22.47-5.59-32.46-8.14-10.74-15.8-21.85-23.64-32.81-10.74-15.01-21.45-30.04-32.78-45.9,9.48-25.91,18.57-50.72,27.61-75.55Zm581.24,1025.73c-31.02,4.79-62.02,9.66-93.02,14.62-17.2,2.75-31.07,10.99-39.64,26.42-6.52,11.75-12.78,23.74-17.9,36.14-15.11,36.62-24.44,74.92-29.55,114.08-6.75,51.74-4.97,103.66.77,155.35,3.51,31.7,8.45,63.27,13.78,94.72,4.08,24.06,9.79,47.85,14.76,71.76,1.34,6.43,3.64,12.44,7.83,17.6,15.26,18.78,44.56,19.54,60.22-2.89,34.02-48.71,66.39-98.42,94.16-151.02,13.98-26.48,26.78-53.51,37.89-81.32,4.89-12.25,6.96-24.62,4.61-38.02-4.74-27.01-8.52-54.18-12.67-81.3-7.38-48.31-14.7-96.62-22.13-144.93-1.58-10.28-3.52-20.51-5.51-32.05-5.72.33-9.72.24-13.61.84Zm62.58-2.47c2.21,14.8,4.57,29.58,6.86,44.37,5.58,35.99,11.16,71.97,16.71,107.96,5.17,33.53,10.19,67.08,15.51,100.58,1.99,12.54,6.88,23.92,15.35,33.6,11.18,12.77,21.95,25.91,33.51,38.32,48.82,52.41,103.28,98.5,160.2,141.77,2.38,1.81,4.82,3.58,7.39,5.09,27.24,16.04,57.13-6.6,55.62-31.51-.27-4.48-.32-8.99-.81-13.45-2.56-23.31-5.08-46.63-7.9-69.91-5.88-48.59-15.07-96.56-27.51-143.91-16.12-61.38-41.3-118.67-77.82-170.66-10.01-14.25-21.61-27.42-33.04-40.6-5.19-5.98-11.41-11.22-17.77-16-10.79-8.11-23.19-11.57-36.66-9.62-25.16,3.64-50.28,7.52-75.39,11.45-11.24,1.76-22.42,3.89-34,5.93-.14,2.8-.55,4.75-.27,6.59Zm78.4-139.08c-8.91-17.2-21.19-31.54-37.26-42.2-6.37-4.22-8.34-9.12-8.14-16.16.66-23.99,2.31-47.83,7.95-71.26,2.81-11.68,6.47-23.02,11.8-33.82,5.27-10.67,11.97-19.61,24.64-22.01,1.92-.36,3.81-1.21,5.56-2.14,16.26-8.57,22.73-28.53,14.64-44.99-7.22-14.7-23.53-21.99-40.38-17.89-19.1,4.64-34.55,15.16-47.26,29.91-14.91,17.3-24.53,37.42-31.61,58.95-9.45,28.73-12.5,58.44-14.14,88.4-.18,3.34-.86,6.66-1.28,9.79-6.73,1.24-12.59,2.49-18.5,3.38-6.25.94-12.55,1.54-18.07,2.2-7.88-18.47-14.81-36.1-22.84-53.21-9.81-20.87-22.47-40.01-38.25-56.96-12.01-12.9-25.56-23.77-41.58-31.36-15.31-7.25-31.39-9.71-48.1-7.29-15.37,2.23-27.15,15.23-28.2,30.51-1.15,16.8,8.3,30.82,24.11,35.12,4.25,1.15,8.84,1.54,13.26,1.49,6.87-.09,13.04,1.79,17.81,6.47,7.1,6.95,14.47,13.88,20.26,21.88,19.54,26.96,31.71,57.39,41,89.96-14.8,17.41-25.11,37.27-28.43,59.97-3.37,23.06-.63,45.54,9.51,67.82,82.15-12.36,163.78-25.08,246.8-38.24.6-24.97-2.45-47.35-13.31-68.32Zm-1112.76-732.99c-35.71-10-72.06-16.02-109.18-15.93-16.93.04-33.9,1.48-50.76,3.17-10.37,1.04-20.74,3.14-30.81,5.89-12.79,3.5-20.93,16.49-18.83,28.7,1.9,11.01,10.59,23.11,27.43,22.46,4.95-.19,9.85-1.48,14.78-2.21,10.35-1.52,20.67-3.68,31.08-4.36,44.27-2.89,87.62,2.34,129.86,16.06,5.06,1.64,9.92,3.89,15.05,5.93,0,10.89-.14,20.86.03,30.82.21,12.58,2.85,24.79,6.82,36.65,2.86,8.54,6.77,16.69,13.16,23.28,12.78,13.17,27.81,19.42,46.02,13.36,8.45-2.81,16.95-6.07,24.61-10.53,9.01-5.24,17.47-11.6,25.58-18.19,25.28-20.52,47.78-43.91,68.52-68.94,6.66-8.04,12.83-16.66,17.99-25.72,4.4-7.7,7.51-16.25,10.35-24.71,6.08-18.13-2.23-37.68-18.22-48.27-6.56-4.35-13.96-7.85-21.45-10.32-13.78-4.55-28.12-6.48-42.7-6.53-7.38-.02-14.86.98-22.15-.65-1.11-2.14-2.26-3.81-2.91-5.67-10.42-29.84-16.96-60.53-18.65-92.09-1.47-27.48-.53-54.87,5.24-81.96,1.03-4.81,1.35-9.98.87-14.87-1.57-16.11-19.04-26.72-34.28-21.25-10.41,3.74-15.75,11.3-17.99,21.94-7.65,36.43-9.77,73.16-6.41,110.19,2.53,27.9,7.82,55.28,16.31,82.02.71,2.24.89,4.65,1.32,7.03-29.59,3.02-44.42,14.29-47.82,48.05-4.36-1.13-8.64-2.18-12.89-3.36Zm1006.02,1386.3c16.91,28.14,42.61,43.69,75.33,43.93,44.75.33,77.03-28.86,87.12-64.74,4.59-16.32,6.2-33.23,6.99-49.67-1.51-1.75-2.36-3.01-3.47-3.97-37.39-32.38-72.94-66.62-105.42-103.99-1.49-1.71-2.81-4.31-7.06-2.82-20.61,47.86-45.65,94.25-74.01,139.65,6.83,14.04,12.61,28.47,20.51,41.61Zm-1586.47-582.39c3.34-3.87,6.18-7.34,9.2-10.63,17.72-19.32,39.19-32.14,65-37.48,45.8-9.48,93.85,18.45,98.24,74.8,1.97,25.25-4.47,48.47-17.61,69.97-2.55,4.18-5,8.42-7.79,13.13,11.05,9.79,21.45,19.09,31.94,28.28,27.8,24.36,55.7,48.62,85.62,70.37,13.72,9.97,27.79,19.48,41.94,28.85,12.19,8.07,23.28,17.14,31.76,29.22,21.5,30.62,18.54,67.54-7.65,94.35-12.13,12.41-26.81,20.67-43.05,26.29-16.67,5.78-33.98,8.13-51.52,8.15-111.89.11-223.78.07-335.68.02-3.91,0-7.82-.55-11.93-.86-2.55-8.79-2.66-17.28-3.55-25.66-3-28.05-10.11-54.91-23.42-79.95-13.67-25.71-32.51-46.58-57.69-61.45-13.01-7.68-26.92-12.97-41.99-14.92-20.79-2.7-34.85,14.16-33.22,31.04,1.05,10.89,6.52,18.66,16.06,23.61,2.63,1.37,5.56,2.36,8.46,2.96,25.94,5.29,43.22,21.64,55.86,43.77,6.73,11.78,11.19,24.5,13.91,37.79,2.7,13.2,5.49,26.4,4.51,40.87-2.6.65-5.31,1.72-8.08,1.93-4.47.34-8.98.13-13.48.13-93.91,0-187.82-.02-281.73.06-6.46,0-13.03.19-19.36,1.35-16.44,3.03-28.16,18.24-27.19,34.45,1.04,17.38,14.45,31.2,31.56,32.3,4.98.32,9.99.15,14.98.15,91.41,0,182.82-.05,274.24.1,8.43.01,16.95.76,25.28,2.13,42.11,6.96,73.55,44.49,76.16,86.47,2.72,43.85-25.55,84.72-67.35,96.69-5.7,1.63-11.68,2.91-17.58,3.11-17.47.57-34.95.6-52.43.67-21.98.09-43.96.03-65.94.01-3.99,0-8,.08-11.98-.19-17.25-1.19-29.34-13.52-29.39-29.83-.05-15.25,11.89-28.08,28.1-29.89,3.95-.44,7.98-.24,11.98-.25,33.47-.02,66.94,0,100.4-.01,4,0,8-.25,11.99-.05,15.19.77,32.31-14.3,32.48-32.74.18-19-12.48-34.47-30.64-36.43-4.45-.48-8.98-.21-13.48-.21-94.41-.01-188.82-.12-283.23.07-21.3.04-40.59-5.82-57.18-18.8-30.14-23.57-42.87-54.88-35.75-92.54,7.26-38.39,31.41-62.55,68.68-73.36,8.52-2.47,17.63-2.93,27.47-4.47.61-4.57,1.35-9.37,1.88-14.2.49-4.47.74-8.96,1.12-13.44,4.79-56.58,16.81-111.45,39.34-163.75,15.52-36.03,35.8-69.07,62.7-97.88,40.88-43.76,90.93-70.55,149.51-82.28,31.63-6.34,63.52-7.49,95.42-5.09,30.48,2.29,59.88,10.38,88.14,22.08,11.5,4.76,22.62,10.44,33.92,15.69,3.98,1.85,7.98,3.65,12.08,5.53Zm104.07,253.76c24.15.54,39.62-21.39,38.92-40.23-.69-18.69-15.01-38.49-39.33-38.65-23.84-.15-39.67,19.75-39.68,39.78-.01,17.4,14.33,40.15,40.08,39.1Zm80.73,698.92c18.73,18.71,37.61,37.28,56.13,56.2,11.01,11.25,23.5,14.26,38.19,8.88,2.81-1.03,5.71-1.77,8.56-2.69,27.99-9,55.97-18.04,83.99-26.96,4.12-1.31,8.41-2.06,12.82-3.11,9.37,16.51,22.78,28.35,37.12,40.56-4.53,3.79-8.18,7.07-12.06,10.04-35.3,27.01-70.65,53.96-105.98,80.93-2.78,2.12-5.57,4.23-8.27,6.45-15.82,13.01-18.16,27.96-7,44.78,1.93,2.91,4.03,5.71,6.07,8.55,15.73,21.91,31.48,43.8,47.17,65.73,2.86,4,5.49,8.18,8.42,12.58-3.06,3.38-5.61,6.39-8.35,9.21-12.9,13.24-25.89,26.39-38.77,39.64-2.78,2.85-5.6,5.76-7.83,9.03-8.81,12.89-6.73,29.1,4.43,39.42,11.74,10.86,31.07,9.21,39.82.69,2.5-2.44,5.08-4.8,7.53-7.29,19.97-20.3,39.92-40.61,59.86-60.94,2.45-2.49,4.99-4.94,7.11-7.7,8.95-11.61,9.52-23.53,1.81-36.16-1.82-2.98-3.94-5.77-5.98-8.61-16.05-22.29-32.18-44.53-48.1-66.9-2.19-3.08-5.72-5.7-5.31-11.31,42.23-32.42,84.95-65.2,127.04-97.51,9.96,1.33,18.85,2.42,27.68,3.79,1.7.26,3.21,1.68,5.26,2.81-15.75,32.52-11.24,62.67,8.59,90.61-1.25,4.19-2.15,7.56-3.26,10.85-7.01,20.8-14.07,41.59-21.11,62.38-3.2,9.45-6.62,18.84-9.52,28.38-3.94,13-1.79,24.68,8.48,34.29,2.55,2.39,4.95,4.94,7.42,7.41,21.2,21.19,42.42,42.36,63.6,63.57,3.47,3.48,6.75,7.16,10.31,10.97-1.13,2.84-1.95,5.13-2.93,7.36-8.1,18.25-16.24,36.47-24.32,54.72-1.82,4.1-3.91,8.17-5.04,12.48-3.23,12.24,0,22.96,9.67,31.03,9.54,7.95,20.41,9.93,32.16,4.66,8.28-3.71,13.15-10.27,16.68-18.34,12-27.43,24.18-54.79,36.23-82.2,1.4-3.18,2.61-6.48,3.5-9.84,2.47-9.34.41-17.86-5.51-25.34-2.78-3.51-6.07-6.62-9.24-9.8-22.23-22.28-44.49-44.53-66.71-66.82-3.49-3.5-6.8-7.18-10.64-11.24,5.66-18.68,11.45-36.97,19.14-55.76,4.79,2.96,8.56,5.16,12.21,7.56,23.01,15.18,47.37,27.71,73.32,37,28.45,10.18,57.57,16.52,88.05,13.17,37.45-4.12,55.66-25.7,61.92-53.71.97-4.36,1.61-8.84,1.95-13.3,1.44-18.58-.34-36.88-4.75-54.98-9.09-37.27-25.11-71.44-45.96-103.49-2.37-3.64-4.48-7.44-7.29-12.13,19.15-7.12,37.21-13.55,55.85-18.48,4.24,4,7.93,7.32,11.44,10.81,23.01,22.91,46,45.85,68.97,68.8,4.61,4.61,9.29,9.05,15.61,11.32,9.05,3.24,17.53,1.65,26.08-2.18,27.3-12.24,54.72-24.24,82.07-36.36,2.73-1.21,5.5-2.43,8.01-4.03,13.21-8.44,17.88-24.23,11.28-37.95-8.06-16.75-26.21-21.02-37.57-16.1-4.12,1.78-8.33,3.35-12.42,5.18-16.84,7.53-33.64,15.16-50.5,22.67-3.1,1.38-6.39,2.37-9.87,3.64-3.61-3.4-6.93-6.36-10.05-9.51-21.46-21.63-42.88-43.31-64.33-64.96-3.16-3.19-6.28-6.45-9.65-9.42-7.18-6.32-15.65-8.65-25.04-7.04-3.9.67-7.73,1.91-11.5,3.17-25.98,8.74-51.93,17.56-77.89,26.36-3.78,1.28-7.55,2.57-11.35,3.79-4.47,1.43-8.72,1.59-12.78-1.49-2.37-1.79-5.12-3.08-7.74-4.53-16.84-9.29-34.84-12.12-53.59-8.44-8.19,1.61-16.08,4.81-25.12,7.61-1.74-10.46-3.43-20.67-5.33-32.1,30.79-40.25,61.99-81.08,93.25-121.87,1.78-2.32,3.99-4.33,6.28-6.78,4.48,3.11,8.58,5.89,12.61,8.77,21.11,15.12,42.19,30.28,63.29,45.41,2.84,2.04,5.65,4.13,8.62,5.96,13.78,8.52,26.4,7.54,38.46-2.94,1.88-1.64,3.62-3.44,5.4-5.19,20.33-19.94,40.66-39.88,60.98-59.83,2.49-2.45,5.09-4.83,7.3-7.52,10.36-12.65,9.82-29.9-1.15-40.86-11.42-11.4-27.97-12.59-40.87-2.74-3.16,2.41-5.95,5.33-8.81,8.12-13.23,12.91-26.39,25.89-39.65,38.76-2.41,2.33-5.16,4.31-8.04,6.68-4.67-3.21-8.8-5.94-12.82-8.82-22.32-16.01-44.61-32.05-66.92-48.07-3.24-2.33-6.44-4.75-9.85-6.81-14.51-8.78-29.7-4.11-38.22,5.25-3.35,3.69-6.37,7.69-9.41,11.65-27.02,35.3-53.97,70.65-81.06,105.89-3.21,4.17-5.61,9.36-11.57,11.74-11.17-14.54-23.75-27.25-39.11-36.98.56-2.54.83-4.49,1.41-6.35,4.5-14.27,9.04-28.53,13.6-42.79,6.09-19.01,12.3-37.97,18.29-57.01,4.24-13.49,2.33-25.64-8.53-35.6-2.21-2.02-4.25-4.23-6.37-6.34-23.32-23.31-46.66-46.6-69.95-69.93-3.13-3.14-6.01-6.52-9.07-9.84,8.49-18.83,16.79-36.98,24.83-55.24,2.19-4.98,4.33-10.19,5.25-15.5,2.58-14.96-5.39-27.29-19.29-33.33-10.54-4.58-28.24-.74-36.4,12.96-1.78,2.99-3.13,6.24-4.56,9.42-10.37,23.24-20.7,46.5-31.04,69.76-1.01,2.28-2.09,4.54-3,6.86-4.82,12.3-3.01,23.49,5.82,33.39,2.32,2.61,4.91,4.98,7.38,7.45,23.66,23.68,47.32,47.35,70.96,71.05,3.5,3.51,6.83,7.17,10.4,10.94-2.89,16.08-8.9,30.91-13.75,46.02-4.84,15.07-8.62,30.58-15.51,45.49-9.4-.42-18.19-.81-27.99-1.24,2.14-6.23,3.94-11.33,5.64-16.46,5.64-17.02,2.32-32.48-8.24-46.62-5.43-7.27-12.07-13.25-19.65-18.26-12.22-8.07-25.64-13.37-39.68-17.05-10.1-2.65-20.39-4.53-30.3-6.68-13.01-20.47-55.35-102.25-58.71-113.66,3.86-4.61,8.02-9.55,12.13-14.52,4.14-5,8.63-9.76,12.26-15.11,11.89-17.54-.36-38.71-18.98-40.27-9.72-.81-17.4,3.1-23.56,10.52-9.57,11.53-19.05,23.15-28.96,34.38-14.31,16.22-13.51,25.69-4.75,41.9,16.14,29.86,31.68,60.04,47.45,90.09,1.54,2.94,2.91,5.97,4.28,8.81-8.05,4.89-16.34,8.13-22.08,13.91-6.1,6.14-9.78,14.68-14.77,22.59-4.31-2.16-8.74-4.28-13.08-6.56-28.26-14.87-56.49-29.78-84.76-44.64-3.52-1.85-7.17-3.47-10.76-5.18-7.48-3.56-14.66-1.97-21.55,1.61-2.62,1.37-4.94,3.39-7.23,5.31-12.26,10.25-24.5,20.54-36.69,30.88-2.27,1.93-4.57,3.95-6.35,6.31-10.59,14.02-4.18,35.91,14.51,40.45,9.63,2.34,17.65-.37,24.92-6.59,8.69-7.43,17.45-14.77,27.04-22.87,37.81,19.9,75.31,39.33,112.26,59.33,1.18,6.26,2.2,11.64,3.21,17.01,2.5,13.3,6.39,26.16,11.97,38.5,4.99,11.02,11.37,21.06,20.28,29.4,16.82,15.75,35.84,20.92,57.85,12.31,3.49-1.36,7.12-2.37,11.38-3.77.59,9.97,1.12,18.82,1.69,28.37-30.86,9.85-60.86,20.24-91.49,28.97-4.24-4.01-7.91-7.33-11.41-10.83-23.68-23.65-47.32-47.35-70.99-71.01-2.82-2.82-5.58-5.74-8.62-8.32-9.22-7.81-19.78-8.81-30.98-5.5-2.84.84-5.49,2.36-8.22,3.58-23.23,10.35-46.46,20.7-69.68,31.06-2.73,1.22-5.53,2.33-8.12,3.8-13.97,7.91-19.67,22.81-14.25,37.01,5.55,14.54,19.06,22.21,34.76,19.16,4.81-.94,9.47-3.01,14-5.02,18.24-8.07,36.4-16.31,55.74-25.01,10.05,10.04,19.23,19.2,28.4,28.36Z"/>
  </g>
</svg>