<?xml version="1.0" encoding="UTF-8"?>
<svg id="Layer_2" data-name="Layer 2" xmlns="http://www.w3.org/2000/svg" viewBox="0 0 2862.83 2973.43">
  <defs>
    <style>
      .cls-1 {
        fill: #f4f4f5;
        stroke: #f4f4f5;
        stroke-linejoin: round;
        stroke-width: 25px;
      }
    </style>
  </defs>
  <g id="Layer_1-2" data-name="Layer 1">
    <path class="cls-1" d="m2071.67,2341.32c-2.18,4.11-4.14,7.57-5.88,11.14-79.26,161.93-191.64,296.13-337.45,402.17-111.83,81.33-234.91,138.85-368.86,173.2-38.19,9.8-76.84,17.35-115.82,22.98-23.67,3.42-47.66,4.59-71.45,7.29-28.88,3.28-57.85,2.55-86.81,2.81-43.52.38-86.74-3.3-129.91-8.54-60.56-7.35-119.85-20.42-178.12-38.2-105.77-32.26-204.36-79.67-295.19-142.73-182.28-126.57-314.59-293-396.11-499.5-28.13-71.26-47.74-144.88-59.72-220.6-10.56-66.79-15.53-133.98-13.35-201.49,2.58-79.71,16.69-157.68,39.43-234.12,27.87-93.7,67.52-182.37,114.14-268.07,46.83-86.08,100.1-168.11,156.16-248.39,58.91-84.36,120.86-166.49,182.59-248.78,66.52-88.68,133.07-177.35,194.54-269.68,91.58-137.57,183.09-275.19,274.62-412.79,29.04-43.65,58.03-87.33,87.07-130.97,2.49-3.74,4.92-7.56,7.8-10.98,15.53-18.42,42.74-17.88,57.42.44,3.74,4.66,6.91,9.79,10.2,14.79,118.05,179.32,235.92,358.77,354.24,537.91,28.06,42.49,57.61,83.99,86.53,125.91,2.8,4.06,6.03,7.83,9.53,12.35,197.53-99.83,403.69-124.62,617.86-69.78,157.5,40.33,292.4,121.07,404.97,238.34,228.62,238.16,299.76,583.78,188.74,889.89-107.53,296.47-378.93,529.21-727.18,565.42ZM1097.33,118.1c-3.47,4.93-6.68,9.25-9.67,13.74-67.79,101.84-135.51,203.74-203.35,305.55-50.39,75.63-100.39,151.54-151.56,226.64-65.55,96.19-136.48,188.49-206.21,281.65-63.75,85.17-127.06,170.64-186.05,259.22-52.91,79.44-102.23,160.98-143.92,246.96-35.36,72.94-64.62,148.14-84.28,226.91-14.55,58.32-23.71,117.45-25.26,177.56-1.41,54.52,1.87,108.87,9.38,162.89,10.69,76.91,29.68,151.75,58.07,224.09,72.91,185.76,189.85,337.84,351.74,454.4,165.67,119.28,351.1,182.25,555.37,188.8,52.49,1.68,104.9-.21,157-6.91,40.56-5.21,80.73-12.72,120.39-22.98,217.37-56.23,396.81-171.6,538.81-345.33,38.03-46.52,70.91-96.56,99.75-149.26,2.56-4.67,6.05-9.1,6.37-16.42-199.58-3.09-378.76-64.52-534.45-189.3-156.19-125.18-257.96-286.03-303.09-481.2-37.47-162.04-28.93-322.5,27.06-479.39,66.22-185.54,183.85-331.09,348.72-439.99-3.13-4.82-5.94-9.42-9-13.85-25.23-36.59-51-72.81-75.64-109.79-45.96-68.98-91.27-138.4-136.84-207.64-63.96-97.19-127.91-194.39-191.93-291.54-3.19-4.84-5.72-10.32-11.4-14.81Zm890.29,575.93c-430.96-1.32-781.99,348.03-789.08,773.76-7.31,439.09,344.79,803.35,788.28,803.32,442.75-.03,787.97-359.77,789.15-784.45,1.24-444.85-360.41-794.19-788.34-792.63ZM916.99,1971.75c-18.79,11.38-38.35,19.79-59.91,25.08-.4,4.1-1.08,7.97-1.11,11.85-.12,16.98.05,33.96-.13,50.94-.06,5.46-.31,11.04-1.46,16.35-3.84,17.77-19.77,28.94-38.96,27.78-17.46-1.05-32.29-14.93-33.11-32.71-.88-18.94-.31-37.94-.44-56.92-.04-5.42-.28-10.84-.45-16.87-21.82-5.74-42.15-13.48-61.04-25.57-4.03,3.79-7.7,7.1-11.2,10.58-12.4,12.31-24.73,24.71-37.13,37.03-8.12,8.07-17.56,12.98-29.4,12.35-14.16-.76-24.82-7.29-31.26-19.8-6.43-12.49-5.71-25.15,1.83-37,2.64-4.15,6.36-7.67,9.86-11.21,11.58-11.72,23.3-23.31,34.93-34.98,2.8-2.81,5.48-5.74,8.73-9.15-4.8-9.85-10.01-19.4-14.19-29.39-4.21-10.07-7.4-20.56-11.33-31.72-3.15-.26-6.5-.77-9.86-.79-18.48-.08-36.95,0-55.43-.09-3.97-.02-8.06-.04-11.89-.94-18.04-4.23-30.58-20.72-29.46-38.3,1.18-18.48,15.89-33.25,35.03-34.93,4.46-.39,8.98-.16,13.48-.16,18.95-.01,37.91,0,57.71,0,3.89-10.99,7.2-21.84,11.57-32.25,4.21-10.02,9.5-19.59,14.63-29.96-8.71-8.71-17.17-17.14-25.6-25.61-8.45-8.5-17.37-16.59-25.19-25.64-17.26-19.98-9.07-50.07,15.77-58.67,11.48-3.98,22.7-2.8,32.77,4.35,4.04,2.87,7.66,6.38,11.21,9.88,11.73,11.57,23.32,23.29,35,34.91,2.81,2.79,5.78,5.42,9.32,8.72,18.8-11.6,38.8-20.07,60.98-25.47.21-5.25.56-10.14.59-15.04.08-17.98.14-35.96.01-53.93-.05-7.71,1.59-14.78,5.85-21.29,8.4-12.81,23.17-18.85,39.17-15.84,13.42,2.53,24.96,14.05,27.65,28.26,1.01,5.35,1.25,10.91,1.31,16.38.17,15.98,0,31.96.1,47.94.03,4.4.55,8.8.87,13.68,21.46,5.32,41.11,13.48,60.02,25.22,3.03-2.64,6.1-5.05,8.86-7.77,13.49-13.35,26.89-26.78,40.31-40.2,7.76-7.76,16.85-12.03,28.1-11.81,28.08.54,45.33,30.47,31.2,54.78-2.71,4.67-6.54,8.81-10.34,12.71-11.51,11.8-23.28,23.33-34.9,35.02-3.14,3.16-6.11,6.48-9.37,9.96,4.99,10.11,10.31,19.69,14.51,29.73,4.21,10.06,7.3,20.59,11.11,31.57,4.92.13,9.86.36,14.81.38,17.98.06,35.96-.22,53.93.14,13.86.28,25.1,6.07,32.33,18.28,14.65,24.77-2.12,54.44-31.82,55.71-15.95.68-31.96.16-47.94.17-6.95,0-13.9,0-21.62,0-5.97,21.77-13.72,42.14-25.77,60.9,3.16,3.51,5.67,6.55,8.44,9.34,11.96,12.05,24.05,23.97,35.97,36.07,3.49,3.54,7.05,7.17,9.76,11.3,9.84,15.02,7.42,34.07-5.52,46.49-12.71,12.18-32.34,13.73-46.77,3.41-3.62-2.59-6.78-5.88-9.96-9.04-12.06-11.95-24.01-24.01-36.07-35.97-2.77-2.75-5.8-5.25-9.09-8.21Zm-99.17-44.93c55.09.41,106.3-42.54,107.12-104.42.85-64.09-49.23-107.86-104.52-108.38-66.63-.63-107.01,54.28-107.93,103.51-1.06,57.35,44.08,108.46,105.32,109.3Zm424.35,840.83c-17.97-1.33-34.3-2.53-51.63-3.81-4.15,3.85-6.04,10.32-9.85,15.44-3.83,5.15-7.43,11.06-12.55,14.56-15.15,10.38-29.84,9.93-44.38-.94-13.1-9.79-17.46-27.55-11.04-43.1,1.32-3.21,3.25-6.17,4.93-9.22,2.64-4.81,5.3-9.6,8.21-14.87-5.45-7.08-11.18-13.93-16.22-21.25-4.75-6.9-8.79-14.3-13.27-21.69-6.02,3.13-11.23,5.97-16.54,8.58-11.8,5.81-32.67,4.63-44.5-10.92-12.86-16.91-9.51-40.48,8.19-52.81,7.75-5.4,16.28-9.68,24.46-14.46,4.31-2.52,8.55-5.17,12.96-7.47,3.42-1.78,5.12-4.56,5.98-8.1,2.01-8.22,4.03-16.44,6.22-25.36-5.1-1.19-10.39-2.1-15.48-3.68-16.12-4.99-25.83-17.84-26.24-34.29-.5-20.18,14.32-36.52,34.69-37.69,8.96-.52,17.97-.14,26.96-.16,6.98-.01,13.96,0,21.34,0,8.56-10.61,14.12-22.91,21-34.35,6.68-11.11,13-22.44,19.85-34.3-1.64-3.37-3.2-6.96-5.09-10.36-4.36-7.85-9.16-15.47-13.28-23.44-8.46-16.39-4.71-34.52,8.86-46.06,12.64-10.75,33.46-10.98,45.86-1.11,2.32,1.85,4.61,3.73,7.18,5.81,5.38-2.15,8.03-7.3,12.05-10.86,4.09-3.62,7.97-7.49,12.36-11.66,0-12.87,0-25.82,0-38.77,0-7.06.77-13.88,4.36-20.23,7.6-13.45,22.69-20.91,37.88-18.46,16.47,2.65,28.27,14.2,30.8,30.27.46,2.95.48,5.97.8,8.94.26,2.41.67,4.79,1.04,7.33,16.86,1.42,33.08,2.78,50.9,4.28,4.59-3.95,7.14-11.14,10.88-17.44,5.93-9.98,14.28-16.4,25.62-19.1,22.11-5.27,48.84,14.66,43.62,42.49-1.08,5.73-4.14,11.15-6.66,16.54-2.11,4.51-4.8,8.74-7.16,13.13-.45.84-.58,1.86-.97,3.14,5.08,6.51,10.61,12.95,15.4,19.9,4.77,6.92,8.81,14.34,13.57,22.21,6.1-3.06,11.61-6.26,17.45-8.67,15.52-6.39,33.87-2.36,44.18,11.82,12.51,17.2,8.56,40.62-9.46,52.55-9.14,6.05-18.6,11.76-28.42,16.59-9.25,4.55-15.15,10.41-15.97,21.28-.43,5.73-3.01,11.3-4.82,17.67,4.15.55,7.6.78,10.94,1.49,20.33,4.33,32.54,19.87,31.2,39.56-1.28,18.92-16.69,33.29-37.09,34.11-10.47.42-20.97.1-31.46.11-4.97,0-9.93,0-15.63,0-13.32,23.09-26.49,45.92-39.98,69.3,5.88,10.19,11.67,20.04,17.26,29.99,4.75,8.45,7.36,17.27,5.39,27.23-5.69,28.66-37.12,37.72-56.96,23.73-2.85-2.01-5.52-4.26-8.87-6.86-8.57,5.62-14.77,14.13-22.24,21.17-1.75,1.65-1.85,5.52-1.92,8.39-.23,9.98.1,19.98-.2,29.96-.17,5.45-.29,11.17-1.99,16.24-5.35,15.96-20.86,26.79-40.02,24.35-16.37-2.09-29.12-14.71-31.2-31.51-.6-4.88-.85-9.8-1.31-15.21Zm-83.14-147.12c-.26,52.42,48.07,85.19,95.14,67.17,15.96-6.11,27.42-17.63,35.9-32.47,20.54-35.96,41.36-71.76,62.06-107.62,12.47-21.61,24.9-43.23,37.42-64.82,6.34-10.94,10.7-22.41,11.43-35.22,1.63-28.44-13.56-54.54-39.27-66.86-26.99-12.93-56.07-6.51-75.49,10.47-6.85,5.99-12.04,13.22-16.55,21.09-17.12,29.87-34.41,59.64-51.62,89.45-15.96,27.66-31.85,55.36-47.88,82.97-6.89,11.87-11.62,24.29-11.15,35.82ZM511.9,1261.07c-1.75-94.78,76.94-177.4,175.57-179.68,92.88-2.15,182.58,71.81,183.05,180.01.4,91.29-71.41,177.85-178.09,178.73-109.71.9-181.99-89.33-180.53-179.05Zm178.38,105.28c50.45,1.12,105.26-38.14,106.08-103.43.87-69.32-56.49-107.56-105.21-107.49-52.34.07-105.14,42.26-105.34,104.31-.22,66.3,53.8,107.03,104.47,106.6Zm-105.12,1190.43c-79.93,1.13-158.4-63.47-158.27-159.61.12-86.04,71-157.49,159.56-156.94,91.01.56,158.46,76.27,157.57,160.54-.87,83.17-70.07,156.75-158.86,156.01Zm84.65-157.04c-.02-48.8-37.47-85.44-83.57-85.78-48.19-.35-84.47,37.52-85.25,82.55-.84,48.49,37.17,86.26,84.32,86.48,46.13.22,84.34-37.62,84.49-83.26Zm352.35-1707.23c-.92-71.77,57.2-146,146.91-146.88,80.55-.8,149.42,62.68,148.81,149.6-.6,85.11-70.41,146.19-147.75,146.18-84.18-.01-148.99-69.23-147.97-148.9Zm147.48,74.58c35.08,1.6,73.56-27.79,74.16-72.46.55-41.34-32.6-74.66-73.44-74.97-42.19-.32-73.95,35.86-74.13,72.72-.21,43.19,36.07,76.01,73.41,74.71ZM352.84,1819.46c-19.51.59-36.61,14.5-36.91,37.13-.27,20.32,16.96,36.99,37.08,36.94,20.22-.04,36.86-16.83,36.77-37.1-.09-20.33-16.91-37.57-36.93-36.97Zm598.26,530.58c.09,19.85,16.64,36.01,36.43,36.36,20.63.37,37.25-16.01,37.65-36.5.35-17.9-14.71-37.62-37.05-36.85-19.9-.77-37.12,16.01-37.03,36.98Zm51.29-1305.07c-.03,21.06,15.36,37.29,36.47,37.66,20.73.37,37.05-15.98,37.45-36.59.38-19.11-16.4-37.86-37.13-36.71-20.18.1-36.77,15.81-36.79,35.64Zm986.17,78.47c153.81,0,307.61,0,461.42,0,9.97,0,19.79.4,29.69,2.75,39.55,9.39,70.8,45.15,74.62,84.25.78,7.94,1.44,15.93,1.44,23.89.08,166.29.13,332.58-.09,498.87-.02,11.39-.58,23.25-3.74,34.07-11.83,40.49-38.63,65.36-80.63,72.78-6.84,1.21-13.86,1.89-20.8,1.89-308.61.09-617.22.07-925.84.1-15.12,0-29.91-1.81-43.8-8.04-35.13-15.75-55.8-42.52-60.64-80.95-.87-6.91-1.01-13.94-1.02-20.92-.06-168.29.03-336.58-.12-504.87-.03-34.82,12.77-63.17,40.59-84.26,17.21-13.05,36.78-19.6,58.5-19.58,43.94.06,87.89,0,131.83,0,112.86,0,225.72,0,338.57,0Zm.26,74.12c-151.36,0-302.71,0-454.07,0-5,0-10,.27-14.98.03-15.31-.74-26.58,12.42-26.57,26.48,0,2.5-.04,5-.04,7.49,0,166.84,0,333.68.02,500.53,0,4.49-.19,9.06.55,13.45,2.16,12.76,11.63,21.18,24.62,22.25,3.48.29,6.99.11,10.49.11,305.71,0,611.42,0,917.13,0,3.5,0,7.01.18,10.49-.12,13.51-1.16,23.15-10.35,24.86-23.76.44-3.45.28-6.98.28-10.48.01-167.34.01-334.68-.01-502.03,0-3.99.12-8.05-.55-11.95-2.26-13.01-11.4-21.04-24.65-21.83-4.98-.3-9.99-.17-14.98-.17-150.86,0-301.71,0-452.57,0Zm41.16,141.63c21.77-52.33,59.72-82.62,116.07-82.27,55.11.34,92.2,30.39,113.55,81.63,3.54.31,7.4.92,11.26.93,31.46.08,62.93-.05,94.39.14,5.41.03,11.03.5,16.18,2.03,17.7,5.26,27.67,20.39,26.14,38.71-1.43,17.22-15.35,31.3-33.14,33.29-3.95.44-7.98.25-11.98.25-28.97.02-57.94.01-86.9.01-4.94,0-9.88,0-15.32,0-2.33,5.03-4.25,9.56-6.48,13.94-22.12,43.33-57.65,67.77-106.08,68.74-50.38,1.01-87.59-23.15-110.92-68.05-2.27-4.38-4.07-9-6.44-14.3-5.93-.11-11.85-.32-17.78-.32-131.85-.02-263.71-.01-395.56-.02-4.99,0-10,.19-14.98-.14-19-1.27-34.63-16.97-35.06-36.22-.37-16.74,11.1-34.65,33.41-37.7,4.91-.67,9.97-.3,14.96-.3,132.35-.01,264.71,0,397.06-.02,5.93,0,11.86-.21,17.6-.32Zm161.14,37.26c-.57-25.34-20.42-46.64-47.09-45.83-27.8.84-45.47,22.71-44.9,46.39.76,31.69,26.44,46.88,46.97,45.95,30-1.36,45.54-26.33,45.03-46.5Zm-246.49,174.5c6.8.13,12.73.35,18.67.35,131.35.02,262.69,0,394.04.03,5.99,0,12.01-.11,17.96.46,18.42,1.76,31.88,16.46,32.44,35.06.58,19.19-12.65,35.08-31.57,37.36-6.41.77-12.96.68-19.44.68-131.35.04-262.69.02-394.04.04-5.91,0-11.82.23-17.73.36-21.56,50.61-57.43,81.4-113.06,82.31-57.71.94-95.08-29.93-117.35-82.01-4.54-.23-8.94-.63-13.35-.64-28.97-.06-57.93,0-86.9-.05-4.99,0-10.01,0-14.95-.55-19.15-2.16-32.35-17.31-32.25-36.74.09-19.2,13.81-34.16,33.1-35.9,4.47-.4,8.98-.37,13.47-.37,28.47-.03,56.93-.02,85.4-.02,4.92,0,9.84,0,14.91,0,23.75-55.42,63.92-86.48,124.67-82.62,51.96,3.3,85.96,33.42,105.98,82.25Zm-115.19,82.83c23.25,1.11,45.64-18.25,46.36-45.01.68-24.99-20.11-45.37-45.12-46.39-24.31-1-47.19,19.65-47.01,45.89.17,25.13,21.08,46.35,45.76,45.52Z"/>
  </g>
</svg>