<?xml version="1.0" encoding="UTF-8"?>
<svg id="Layer_2" data-name="Layer 2" xmlns="http://www.w3.org/2000/svg" viewBox="0 0 2308.37 2777.96">
  <defs>
    <style>
      .cls-1 {
        fill: #f4f4f5;
        stroke-width: 0px;
      }
    </style>
  </defs>
  <g id="Layer_1-2" data-name="Layer 1">
    <path class="cls-1" d="m717.34,1124.84c69.34,318.71,288.28,614.44,543.18,776.26,2.29-2.88,4.88-5.7,6.99-8.85,21.13-31.57,43.19-62.43,67.97-91.27,13.04-15.17,26.77-29.66,42.35-42.31,31.12-25.27,65.77-32.11,103.89-19.47,26.49,8.79,52.81,18.07,79.2,27.16,220.03,75.81,440.04,151.66,660.09,227.39,18.25,6.28,34.68,15.2,47.99,29.37,13.68,14.57,22.35,31.82,26.71,51.17,7.81,34.65,13.84,69.52,12.44,105.29-.45,11.47-.05,22.98-.08,34.47-.08,30.01-2.19,59.95-6.25,89.62-4.06,29.7-12.26,58.6-22.24,86.89-46.89,132.81-130.94,235.26-251.72,307.62-58.84,35.25-122.3,58.47-189.6,70.69-43.79,7.95-87.98,10.85-132.7,8.01-44.02-2.79-87.12-10.66-130.06-19.61-83.51-17.4-165.62-40.07-246.22-68.15-121.43-42.31-237.76-95.66-348.68-160.69-107.56-63.07-208.3-135.66-302.15-217.8-68.91-60.31-133.46-124.95-193.37-194.18-73.36-84.78-139.19-175.09-197.39-270.94-67.82-111.71-124.12-228.94-168.87-351.73-34.58-94.88-61.67-191.87-81.34-290.9-9.43-47.49-17.59-95.23-22.65-143.42-3.91-37.24-8.13-74.47-10.84-111.8C.32,896.83-.19,845.87.05,794.89c.22-48,2.88-95.88,6.97-143.65,4.95-57.71,12.76-115.07,22.48-172.21,22.63-133.06,84.7-244.22,184.95-333.97C286.08,80.94,369.34,38.34,462.74,15.59c55.24-13.46,111.36-17.73,167.97-14.62,37.44,2.06,73.99,9.32,110.13,19.91,41.23,12.08,82,24.94,119.97,45.33,16.25,8.73,32.43,17.71,47.99,27.61,32.89,20.91,48.83,51.65,50.08,90.31.13,3.99-.02,7.99-.09,11.99-2.51,134.36-5.11,268.72-7.5,403.08-1.57,87.91-2.79,175.83-4.28,263.74-.63,36.96-1.35,73.92-2.36,110.88-1.05,38.46-18.62,67.66-50.89,88.11-19.48,12.35-40.71,21.16-62.29,29.02-33.28,12.13-67.3,21.82-101.71,30.19-4.23,1.03-8.35,2.49-12.42,3.72Z"/>
  </g>
</svg>