<?xml version="1.0" encoding="UTF-8"?>
<svg id="Layer_2" data-name="Layer 2" xmlns="http://www.w3.org/2000/svg" viewBox="0 0 1706.21 393.38">
  <defs>
    <style>
      .cls-1, .cls-2 {
        stroke-width: 0px;
      }

      .cls-2 {
        fill: #104c99;
      }
    </style>
  </defs>
  <g id="Layer_1-2" data-name="Layer 1">
    <path class="cls-1" d="m449.58,7.16c.96-.04,1.82-.12,2.69-.12,27.43,0,54.87-.05,82.3.04,15.26.05,30.12,2.18,44.08,8.53,19.55,8.88,34.02,22.82,44.52,40.64,12,20.36,17.69,42.49,19.47,65.62,2.01,26.04.19,51.79-7.46,76.96-6.37,20.96-16.43,39.95-33.86,54.73-14.07,11.93-30.39,19.52-49.11,21.65-10.84,1.24-21.81,1.78-32.72,1.92-22.01.29-44.03.09-66.04.09h-4.11c3.81-45.1,2.62-90.07,2.55-135.03-.07-44.89,1.46-89.82-2.31-135.04Zm52.23,236.6c11.56-.68,22.88-.6,33.96-2.16,20.98-2.95,35.65-14.2,43.73-33.05,5.96-13.92,8.17-28.58,9.21-43.41,1.39-19.8,1.32-39.61-1.25-59.35-1.65-12.68-4.31-25.16-10.68-36.55-7.07-12.65-16.51-23.01-31.99-26.4-5.03-1.1-10.24-1.74-15.4-1.91-9.13-.3-18.28-.09-27.58-.09v202.92Zm553.69-101.67c-.18,44.96,1.61,89.97-2.23,134.97h51.82c-.46-5.62-1.18-11.05-1.29-16.49-.4-19.5-.63-39.01-.8-58.51-.02-1.79.55-3.76,1.39-5.35,7.85-14.77,15.83-29.47,23.77-44.2.78-1.45,1.57-2.89,2.59-4.78.64,1.4,1.09,2.33,1.49,3.27,17.31,41.06,34.64,82.12,51.88,123.22.95,2.27,2.03,3.09,4.58,3.07,16.66-.14,33.32-.07,49.99-.08.98,0,1.97-.12,3.29-.2-.74-1.59-1.28-2.83-1.89-4.03-28.67-56.12-53.1-114.19-78.76-171.7-.8-1.8-.55-3.07.48-4.62,2.91-4.38,5.45-9.03,8.54-13.28,5.7-7.82,11.37-15.7,17.64-23.05,5.99-7.02,13.81-11.33,23.28-11.9,3.31-.2,6.64-.03,9.93-.03V7.12c-16.54-1.04-30.58,4.81-43.44,14.13-13.01,9.43-22.97,21.76-31.52,35.1-14.03,21.89-27.44,44.17-41.11,66.29-.51.83-1.09,1.62-1.64,2.43l-1-.2c.58-39.15,1.16-78.31,1.74-117.64h-50.55c2.59,45.05,2.01,89.97,1.84,134.86Zm649.85.03c-.27,31.67-7.39,61.8-24.1,89.65-10.25,17.09-23.33,31.96-41.94,41.85-31.83,16.92-71.05,13.52-99.64-8.43-20.39-15.65-33.34-35.94-41.88-58.81-9.44-25.27-12.96-51.34-11.09-78.03,2.2-31.4,12.07-60.46,30.96-86.71,11.6-16.11,26.21-29.13,46.1-36.09,33.22-11.62,71.5-5.32,97.65,21.66,21.97,22.67,34.69,49.37,40.26,79.1,2.21,11.78,3.06,23.78,4.53,35.68-.29.04-.58.08-.87.12Zm-56.15-3.09c-.32-5.58-.68-14.33-1.34-23.05-1.19-15.9-4-31.54-9.69-46.62-4.19-11.12-9.72-21.59-19.49-29.57-7.87-6.43-16.96-9.51-27.58-8.2-9.83,1.22-17.22,6.16-23.34,12.99-8.36,9.32-13.21,20.3-16.79,31.79-6.25,20.09-8.17,40.69-8.35,61.5-.19,21.97,1.27,43.78,6.99,65.19,3.46,12.95,8.32,25.36,17.44,35.97,15.77,18.35,40.49,18.72,56.71.87,7.29-8.02,11.8-17.4,15.26-27.27,8.04-22.9,9.73-46.59,10.18-73.6Zm-932.02,138.06h-49.47c.84-2.2,1.71-4.28,2.43-6.4,10.35-30.32,20.74-60.63,30.99-90.99,16.6-49.16,33.13-98.36,49.58-147.57.57-1.69.48-3.9-.08-5.62-2.07-6.38-4.47-12.65-6.86-19.26h52.06c28.34,89.75,55.06,180.08,84.16,269.74h-52.98c-5.33-20.81-10.7-41.75-16.11-62.85h-78.72c-5.28,20.73-12.57,41.06-15.02,62.95Zm85.56-99.3c-9.81-34.4-19.5-68.36-29.18-102.33-.24.02-.48.04-.72.05-9.83,34.02-19.65,68.03-29.55,102.27h59.45Zm585.36,54.85c-.27-23.2-.14-46.4.01-69.6.02-2.82.73-5.84,1.89-8.42,21.93-48.86,46.25-96.55,71.12-143.96.56-1.07,1.07-2.18,1.77-3.62-15.03,0-29.57-.03-44.1.09-.77,0-1.89,1.1-2.22,1.94-2.16,5.47-3.9,11.12-6.25,16.51-13.21,30.36-26.55,60.66-39.86,90.98-.26.6-.68,1.14-1.15,1.91-18.97-36.06-33.22-73.82-48.49-111.26h-54.1c2.75,5.04,5.65,9.79,8.01,14.79,21.59,45.85,43.11,91.74,64.56,137.65.85,1.82,1.29,4.01,1.3,6.03.1,18.98.14,37.97.03,56.95-.08,12.75-.35,25.51-.73,38.26-.16,5.34-.84,10.67-1.29,16.18h51.11c-.57-14.96-1.44-29.68-1.61-44.41Zm-462.88,44.41h51.15c0-1.84.06-3.5,0-5.16-.58-13.89-1.65-27.79-1.71-41.68-.25-53.13-.23-106.27-.19-159.4,0-13.7.34-27.4.72-41.1.21-7.45.82-14.88,1.26-22.5h-50.89c2.33,90.1,2.46,179.93-.33,269.85Z"/>
    <path class="cls-1" d="m450.39,299.3h9.86v85.28h-9.86v-85.28Zm60.94,30.51c0,14.74.43,25.74,1.21,39.16h-.26c-2.99-9.23-7.47-20.52-11.09-29.68l-15.9-40h-9.32v85.28h8.91v-29.54c0-18.21-.23-29.01-.98-40.42h.26c3.07,10.66,6.79,20.33,10.29,28.94l16.46,41.02h9.32v-85.28h-8.91v30.51Zm18.65-21.76h15.85v76.52h9.86v-76.52h15.89v-8.75h-41.6v8.75Zm61.14,36h21.68v-8.23h-21.68v-28.06h23.12v-8.46h-32.98v85.28h34.58v-8.46h-24.72v-32.06Zm73.21,18.95c1.99,11.66,3.75,18.9,4.98,21.58h-10.13c-1.21-2.54-2.91-10.6-4.6-21.09-1.92-11.71-5.67-16.06-14.08-16.06h-3.91v37.16h-9.82v-84.01c4.17-1.19,9.34-1.65,14.25-1.65,8.52,0,14.96,1.76,19.47,6.1,4.31,4.23,6.12,9.92,6.12,16.63,0,10.92-5.23,18.02-13.92,21.98v.25c6.38,1.91,9.74,7.95,11.64,19.13Zm-7.8-40.15c0-9.83-4.06-16.01-14.73-16.09-2,0-3.91.13-5.22.51v32.62h4.19c9.39,0,15.75-6.86,15.75-17.04Zm58.17,6.96c0,14.74.42,25.74,1.21,39.16h-.26c-2.99-9.23-7.47-20.52-11.09-29.68l-15.9-40h-9.32v85.28h8.91v-29.54c0-18.21-.23-29.01-.98-40.42h.26c3.07,10.66,6.79,20.33,10.29,28.94l16.46,41.02h9.32v-85.28h-8.91v30.51Zm50.2-30.51l19.23,85.28h-9.76l-5.7-25.59h-19.23l-5.74,25.59h-9.58l19.82-85.28h10.96Zm2.4,51.89l-4.52-21.68c-1.27-6.05-2.43-13.07-3.47-19.45h-.44c-.99,6.46-2.28,13.74-3.5,19.54l-4.55,21.59h16.47Zm14.26-43.14h15.85v76.52h9.86v-76.52h15.89v-8.75h-41.6v8.75Zm51.28,76.52h9.86v-85.28h-9.86v85.28Zm71.01-43.21c0,31.91-11.11,44.22-25.09,44.22s-24.03-15.08-24.03-43.73,10.35-43.57,25.46-43.57,23.66,15.83,23.66,43.08Zm-10.27.3c0-15.92-2.96-34.83-14.21-34.83s-14.37,17.79-14.37,35.1,3.46,35.1,14.49,35.1,14.08-18.62,14.08-35.37Zm57.54-11.86c0,14.74.43,25.74,1.21,39.16h-.26c-2.99-9.23-7.47-20.52-11.09-29.68l-15.9-40h-9.32v85.28h8.91v-29.54c0-18.21-.23-29.01-.98-40.42h.26c3.07,10.66,6.79,20.33,10.29,28.94l16.46,41.02h9.32v-85.28h-8.91v30.51Zm50.2-30.51l19.23,85.28h-9.75l-5.71-25.59h-19.23l-5.74,25.59h-9.58l19.82-85.28h10.96Zm2.41,51.89l-4.52-21.68c-1.27-6.05-2.43-13.07-3.47-19.45h-.44c-.99,6.46-2.28,13.74-3.5,19.54l-4.55,21.59h16.47Zm37.6-51.89h-9.86v85.28h34.22v-8.26h-24.36v-77.02Zm88.06,5.88c4.18,4.06,6.4,10.25,6.4,17.69,0,7.83-1.96,13.06-5.26,17.38-4.76,6.38-12.77,9.54-20.44,9.54-1.71,0-3.01,0-4.39-.18v34.97h-9.82v-84.01c3.97-1.01,8.62-1.65,14.35-1.65,7.96,0,14.7,1.88,19.16,6.26Zm-3.56,18.31c0-8.78-3.64-16.58-14.65-16.58-2.27,0-4.14.25-5.49.63v33.95c1.13.21,2.26.3,3.93.3,9.68,0,16.2-6.26,16.2-18.3Zm55.47,12.4h-24.27v-36.6h-9.86v85.28h9.86v-39.84h24.27v39.84h9.86v-85.28h-9.86v36.6Zm25.39,48.68h9.86v-85.28h-9.86v85.28Zm35.44-85.28h-9.86v85.28h34.22v-8.26h-24.36v-77.02Zm34.37,85.28h9.86v-85.28h-9.86v85.28Zm59.1-79.39c4.18,4.06,6.4,10.25,6.4,17.69,0,7.83-1.96,13.06-5.26,17.38-4.76,6.38-12.77,9.54-20.44,9.54-1.71,0-3.01,0-4.39-.18v34.97h-9.82v-84.01c3.97-1.01,8.62-1.65,14.35-1.65,7.96,0,14.7,1.88,19.16,6.26Zm-3.56,18.31c0-8.78-3.64-16.58-14.65-16.58-2.27,0-4.14.25-5.49.63v33.95c1.13.21,2.26.3,3.93.3,9.68,0,16.2-6.26,16.2-18.3Zm54.85-18.31c4.18,4.06,6.4,10.25,6.4,17.69,0,7.83-1.96,13.06-5.26,17.38-4.76,6.38-12.77,9.54-20.44,9.54-1.71,0-3.01,0-4.39-.18v34.97h-9.82v-84.01c3.97-1.01,8.62-1.65,14.35-1.65,7.96,0,14.7,1.88,19.16,6.26Zm-3.56,18.31c0-8.78-3.64-16.58-14.65-16.58-2.27,0-4.14.25-5.49.63v33.95c1.13.21,2.26.3,3.93.3,9.68,0,16.2-6.26,16.2-18.3Zm21.34,61.08h9.86v-85.28h-9.86v85.28Zm60.94-54.77c0,14.74.43,25.74,1.21,39.16h-.26c-2.99-9.23-7.47-20.52-11.09-29.68l-15.9-40h-9.32v85.28h8.91v-29.54c0-18.21-.23-29.01-.98-40.42h.26c3.07,10.66,6.79,20.33,10.29,28.94l16.46,41.02h9.32v-85.28h-8.91v30.51Zm34.28,14.25h21.68v-8.23h-21.68v-28.06h23.12v-8.46h-32.98v85.28h34.58v-8.46h-24.72v-32.06Zm55.83,40.52h9.86v-85.28h-9.86v85.28Zm60.94-54.77c0,14.74.43,25.74,1.21,39.16h-.26c-2.99-9.23-7.47-20.52-11.09-29.68l-15.9-40h-9.32v85.28h8.91v-29.54c0-18.21-.23-29.01-.98-40.42h.26c3.07,10.66,6.79,20.33,10.29,28.94l16.46,41.02h9.32v-85.28h-8.91v30.51Zm51.55,46.86c-10.66,0-20.42-8.51-20.42-34.67s10.91-34.87,20.14-34.87c4.51,0,6.61.85,8.71,1.82l2.19-8.31c-1.76-1.1-5.55-2.1-10.77-2.1-13.72,0-30.65,10.81-30.65,44.44,0,28.95,12.15,42.36,29.02,42.36,5.41,0,9.76-.88,12.43-2.25l-1.58-8.22c-2.06.95-5.36,1.81-9.06,1.81Zm25.95-5.82c-3.67,0-6.55,3.1-6.55,7.43s2.8,7.31,6.51,7.31c4.08,0,6.55-2.9,6.55-7.31s-2.63-7.43-6.51-7.43Z"/>
    <path class="cls-2" d="m416.96,200.51c0-57.37-25.41-108.81-65.57-143.67L416.28,7.65H0v385.73h416.28l-64.89-49.2c40.16-34.86,65.57-86.29,65.57-143.67Zm-235.21-114.13l-91.18,69.12v-69.12h91.18Zm-91.18,228.26v-69.12l91.18,69.12h-91.18Zm194.38-20.84l-123.06-93.29,123.06-93.29c31.1,19.45,51.81,53.99,51.81,93.29s-20.71,73.85-51.81,93.29Z"/>
  </g>
</svg>