<?xml version="1.0" encoding="UTF-8"?>
<svg id="Layer_2" data-name="Layer 2" xmlns="http://www.w3.org/2000/svg" viewBox="0 0 379.51 720">
  <defs>
    <style>
      .cls-1 {
        fill: #f4f4f4;
        stroke-width: 0px;
      }
    </style>
  </defs>
  <g id="Layer_1-2" data-name="Layer 1">
    <path class="cls-1" d="m94.29,720v-358.8H0v-135.71h94.31c0-17.6-.72-34.44.19-51.18,1.01-18.63,1.39-37.69,5.75-55.66,15.36-63.28,59.08-97.63,120.22-111.39,19.83-4.46,40.54-6.01,60.92-6.69,32.26-1.07,64.58-.29,97.45-.29v134.73c-3.72.17-7.51.5-11.3.51-28.42.05-56.85-.2-85.27.11-25.88.28-30.17,4.83-30.24,30.36-.05,19.38-.01,38.76-.01,59.29h127.5c-5.02,45.52-9.9,89.8-14.9,135.2h-127.31v359.53H94.29Z"/>
  </g>
</svg>