<?xml version="1.0" encoding="UTF-8"?>
<svg id="Layer_2" data-name="Layer 2" xmlns="http://www.w3.org/2000/svg" viewBox="0 0 719.99 720">
  <defs>
    <style>
      .cls-1 {
        fill: #f4f4f4;
        stroke-width: 0px;
      }
    </style>
  </defs>
  <g id="Layer_1-2" data-name="Layer 1">
    <path class="cls-1" d="m719.99,164.49v390.84c-.45,2.03-1.08,4.03-1.31,6.09-9.71,88.67-84.16,157.56-173.25,158.13-123.68.79-247.37.39-371.06.05-29.26-.08-57.13-7.67-82.47-22.43C31.29,661.85.74,608.36.35,538.61c-.66-117.83-.21-235.66-.13-353.49,0-8.65.14-17.38,1.31-25.93C11.54,85.97,51.1,35.88,120.37,10.17,134.45,4.94,149.86,3.3,164.66,0c130.28,0,260.56,0,390.84,0,1.8.42,3.59.99,5.42,1.25,73.75,10.37,123.97,50.25,149.31,120.34,4.95,13.69,6.6,28.57,9.77,42.9Zm-71.88,196.22c0-60.22.25-120.43-.07-180.65-.33-61.38-45.87-107.82-106.85-108.04-120.9-.44-241.8-.47-362.7.03-60.01.25-106.04,46.37-106.27,106.38-.47,120.9-.44,241.8-.01,362.7.21,60.05,46.05,106.32,106.06,106.6,121.13.56,242.27.25,363.4.09,18.29-.02,35.8-4.31,51.77-13.5,36.59-21.06,54.16-53.52,54.54-95.07.54-59.51.14-119.02.14-178.54Zm-288,179.14c-100.79.02-180.14-79.46-179.97-180.29.16-100.53,79.37-179.6,179.92-179.61,100.84-.01,180.14,79.41,179.97,180.27-.17,100.54-79.36,179.6-179.92,179.63Zm108.03-180.21c-.14-60.83-47.12-107.75-107.96-107.81-61.09-.06-108.28,47.2-108.16,108.31.12,60.79,47.15,107.77,107.95,107.83,61.08.06,108.3-47.24,108.16-108.33Zm72.38-215.71c-19.73-.39-36.38,15.97-36.49,35.87-.11,19.56,15.8,35.75,35.52,36.15,19.72.4,36.38-15.99,36.49-35.88.11-19.59-15.78-35.75-35.51-36.14Z"/>
  </g>
</svg>