<?xml version="1.0" encoding="UTF-8"?>
<svg id="Layer_2" data-name="Layer 2" xmlns="http://www.w3.org/2000/svg" viewBox="0 0 720 720">
  <defs>
    <style>
      .cls-1 {
        fill: #f4f4f4;
        stroke-width: 0px;
      }
    </style>
  </defs>
  <g id="Layer_1-2" data-name="Layer 1">
    <path class="cls-1" d="m359.09,720C159.78,719.62-.17,559.06,0,359.53.17,159.5,161.43-.74,361.81,0c199.18.74,358.75,161.72,358.18,361.37-.56,199.29-161.29,359.01-360.91,358.63Zm262.57-386.13c-17.27-.4-31.83,13.24-32.32,30.3-.49,16.91,13.55,31.54,30.68,31.96,17.19.42,31.79-13.28,32.31-30.31.52-16.98-13.46-31.54-30.67-31.94Zm-51.57-45.03c.13-15.51-12-28.18-27.48-28.71-16.21-.56-29.66,12.18-29.81,28.25-.14,15.77,13.65,29.43,29.34,29.05,15.11-.37,27.82-13.37,27.95-28.58Zm.03,76.16c.3-15.84-13.26-29.63-28.94-29.42-14.98.21-28.03,13.23-28.36,28.3-.34,15.33,11.82,28.27,27.24,28.99,16.28.76,29.76-11.73,30.07-27.87Zm-.05,77.28c1.01-15.38-10.55-28.94-25.84-30.29-16.21-1.43-30.24,10.46-31.34,26.57-1.08,15.72,11.84,30.06,27.62,30.66,15.01.58,28.55-11.77,29.55-26.94Zm-105.93-128.14c13.66-.3,25.46-12.58,25.21-26.24-.26-13.86-12.18-25.22-26.19-24.96-13.91.26-25.54,12.22-25.23,25.95.31,13.62,12.68,25.54,26.21,25.25Zm.35,151.76c13.69-.47,25.3-12.87,24.85-26.54-.46-13.94-12.42-25.03-26.52-24.6-13.95.43-25.4,12.51-24.88,26.26.52,13.66,12.99,25.35,26.55,24.88Zm24.83,49.94c-.15-13.76-12.17-25.65-25.86-25.55-13.55.1-25.64,12.36-25.55,25.92.09,13.83,11.95,25.4,25.93,25.3,14.05-.09,25.63-11.77,25.48-25.68Zm-25.29-329.08c-13.68-.2-25.86,11.59-26.1,25.26-.24,13.76,11.4,25.6,25.35,25.78,14.08.19,25.83-11.12,26.03-25.05.2-13.79-11.49-25.8-25.29-26Zm25.28,177.15c-.2-13.81-12.21-25.55-25.95-25.36-13.63.18-25.61,12.41-25.44,25.96.17,13.79,12.09,25.31,26.04,25.16,14.06-.15,25.55-11.83,25.35-25.76Zm-75.18.49c.08-13.15-10.24-23.64-23.38-23.1-13.88.58-21.49,8.71-22.81,22.03-1.23,12.46,10.06,24.02,22.6,24.37,12.58.35,23.51-10.44,23.58-23.3Zm0,227.58c.02-12.87-10.79-23.68-23.42-23.43-12.56.25-23.93,11.71-22.76,24.18,1.24,13.31,8.79,21.52,22.65,22.19,13.1.64,23.51-9.81,23.53-22.94Zm-.02-380.32c-.42-13.11-11.15-23.18-24.29-22.1-13.81,1.14-21.15,9.55-21.9,22.92-.7,12.57,11.05,23.62,23.57,23.4,12.71-.22,23.03-11.27,22.62-24.22Zm-22.83,251.54c13.09-.08,23.55-10.62,22.79-23.71-.8-13.78-8.91-21.45-22.3-22.61-12.44-1.08-23.82,10.37-24.02,22.98-.2,12.66,10.65,23.41,23.52,23.33Zm-.34,29.78c-12.8.09-23.58,11.1-23.2,23.7.37,12.56,12,23.92,24.36,22.64,13.36-1.37,21.38-9.13,21.96-22.94.55-13.11-10.02-23.5-23.12-23.41Zm.84-333.36c13.05-.36,23.27-11.14,22.24-24.23-1.09-13.74-9.32-21.28-22.75-22.11-12.49-.77-23.64,10.95-23.5,23.49.14,12.73,11.15,23.2,24.02,22.85Zm-.76,105.32c-12.54.05-23.51,11.33-23.24,23.89.27,12.76,11.37,23.41,24.25,22.48,13.74-.99,21.34-8.93,22-22.63.62-12.93-10.29-23.8-23.01-23.75Zm-65.19,76.18c-2.71-.07-5.43-.13-8.14-.2-5.67,7.49-13.84,14.22-16.37,22.65-3.17,10.55,8.92,21.87,20.27,21.09,12.29-.84,21.13-8.61,19.39-20.19-1.25-8.35-9.84-15.6-15.15-23.34Zm-9.16,122.17c2.72.05,5.45.1,8.17.15,5.63-7.5,13.77-14.26,16.26-22.69,3.12-10.52-9.05-21.77-20.39-20.97-12.33.87-21.06,8.7-19.27,20.27,1.29,8.33,9.89,15.54,15.22,23.25Zm1.34-151.63c2.72-.11,5.43-.23,8.15-.34,5.21-7.78,13.74-15.14,14.83-23.46,1.49-11.49-7.29-19.26-19.7-19.83-11.44-.52-23.27,10.78-19.94,21.3,2.65,8.36,10.9,14.95,16.66,22.33Zm-35.61-18.85c.07-2.76.13-5.53.2-8.29-6.78-4.52-14.18-13.29-20.18-12.42-6.5.94-15.29,10.37-16.24,17.06-.68,4.78,9.64,15.3,15.59,15.72,6.56.47,13.73-7.68,20.64-12.07Zm0,75.95c.04-2.75.09-5.5.13-8.25-6.75-4.65-14.14-13.65-20.1-12.79-6.53.94-15.15,10.39-16.33,17.26-.78,4.53,9.64,15.1,15.63,15.58,6.54.51,13.75-7.5,20.67-11.8Zm-.13,76.39c.12-2.76.24-5.53.35-8.29-6.64-4.71-13.79-13.69-19.78-12.97-6.53.78-15.57,9.96-16.69,16.62-.8,4.77,9.23,15.56,15.17,16.15,6.54.65,13.93-7.3,20.95-11.51Zm-55.55-81.35c-9.37-6.65-15.91-14.57-20.15-13.49-5.92,1.51-10.12,9.75-15.05,15.1,5.17,4.44,10.14,12.05,15.56,12.38,5.05.31,10.57-7.12,19.64-13.99Zm-40.93,76.97c9.41,6.55,16,14.42,20.29,13.32,5.82-1.49,9.89-9.85,14.71-15.27-5.16-4.37-10.19-11.97-15.51-12.17-5.14-.19-10.57,7.24-19.48,14.12Zm19.85-173.06c-6.56,9.62-14.26,16.17-13.15,20.43,1.54,5.91,9.7,10.09,15.02,15.01,4.46-5.19,12.11-10.18,12.46-15.64.32-5.02-7.2-10.54-14.33-19.81Zm-30.85,20.78c-7.57-5.64-12.52-11.94-15.83-11.17-4.71,1.1-10.24,6.88-11.42,11.65-.67,2.71,6.64,10.44,10.32,10.42,4.66-.03,9.29-5.64,16.92-10.91Zm1.23,74.85c-9.33-5.25-14.43-10.41-19.03-9.99-3.75.34-9.7,7.49-9.51,11.36.2,3.92,6.77,10.54,10.5,10.51,4.63-.04,9.22-5.69,18.04-11.88Zm-1.19,77.18c-7.53-5.74-12.39-12.08-15.73-11.36-4.71,1.02-10.32,6.72-11.57,11.47-.71,2.68,6.49,10.5,10.19,10.54,4.66.04,9.37-5.49,17.11-10.65Z"/>
  </g>
</svg>