<?xml version="1.0" encoding="UTF-8"?>
<svg id="Layer_2" data-name="Layer 2" xmlns="http://www.w3.org/2000/svg" viewBox="0 0 720.45 720">
  <defs>
    <style>
      .cls-1 {
        fill: #f4f4f4;
        stroke-width: 0px;
      }
    </style>
  </defs>
  <g id="Layer_1-2" data-name="Layer 1">
    <path class="cls-1" d="m580.79,719.46c0-74.08.62-146.92-.37-219.73-.3-22.32-2.6-45.2-8.19-66.74-10.75-41.43-35.54-61.81-72.72-64.52-40.46-2.95-80.12,17.97-92.89,55.35-8.96,26.24-12.8,55.17-13.67,83.05-1.94,62.62-.61,125.35-.61,188.03,0,7.85,0,15.71,0,24.89h-138.12V254.19h129.54v64.88c58.21-68.8,130.82-81.14,209.89-67.41,68.48,11.89,105.65,50.69,118.75,119.33,3.94,20.67,7.39,41.82,7.57,62.77.8,94.67.35,189.34.35,285.69h-139.54Zm-561.86.54h137.08V253.57H18.93v466.43ZM88.95.02C42.14-.98,1.01,39.08.02,86.62c-.99,47.45,38.5,87.68,86.55,88.19,48.86.51,87.87-37.4,88.23-85.75C175.17,40.57,137.05,1.04,88.95.02Z"/>
  </g>
</svg>