<?xml version="1.0" encoding="UTF-8"?>
<svg id="Layer_2" data-name="Layer 2" xmlns="http://www.w3.org/2000/svg" viewBox="0 0 2494.48 2877.81">
  <defs>
    <style>
      .cls-1 {
        fill: #104c99;
        stroke-width: 0px;
      }
    </style>
  </defs>
  <g id="Layer_1-2" data-name="Layer 1">
    <path class="cls-1" d="m1608.44,1353.61c-.67,5.4-1.07,7.27-1.1,9.14-.1,5.49-.05,10.99-.05,16.49,0,473.6,0,947.2,0,1420.79,0,6.99.01,13.99-.18,20.98-.96,34.36-32.3,57.76-58.4,56.78-3.99-.15-7.99,0-11.99,0-192.84,0-385.67,0-578.51,0-4.5,0-9,.09-13.49-.05-30.02-.93-54.96-24.81-57.17-54.96-.51-6.96-.23-13.98-.23-20.97,0-475.6,0-951.19,0-1426.79v-17.27c-3.97-2.12-5.44.42-7.1,1.97-3.64,3.42-7.1,7.02-10.63,10.56-110.74,111.11-221.47,222.22-332.21,333.32-3.88,3.89-7.67,7.89-11.72,11.59-23.03,20.98-56.74,21.75-80.78,1.79-3.83-3.18-7.27-6.84-10.8-10.37-136.35-136.36-272.69-272.73-409.02-409.11-3.53-3.53-7.16-7-10.36-10.82-19.81-23.65-19.54-56.32.64-79.58,3.27-3.77,6.91-7.22,10.44-10.75C416.1,805.97,806.44,415.63,1196.79,25.29c2.47-2.47,4.9-5,7.46-7.38,25.76-23.93,60.4-23.88,86.32.15,4.03,3.73,7.83,7.71,11.71,11.6,371.89,372.06,743.78,744.13,1115.66,1116.19,18.01,18.02,36.03,36.04,54.03,54.07,2.82,2.83,5.74,5.59,8.31,8.64,18.18,21.55,19.02,52.25,1.92,74.74-3.31,4.35-7.22,8.28-11.1,12.16-137.84,137.7-275.7,275.37-413.58,413.03-2.83,2.82-5.63,5.69-8.68,8.27-22.61,19.1-54.35,19.21-76.91.14-4.95-4.18-9.44-8.91-14.03-13.51-111.53-111.72-223.05-223.46-334.58-335.19-4.19-4.19-8.46-8.3-14.89-14.59Z"/>
  </g>
</svg>