<?xml version="1.0" encoding="UTF-8"?>
<svg id="Layer_2" data-name="Layer 2" xmlns="http://www.w3.org/2000/svg" viewBox="0 0 794.05 720">
  <defs>
    <style>
      .cls-1 {
        fill: #f4f4f4;
        stroke-width: 0px;
      }
    </style>
  </defs>
  <g id="Layer_1-2" data-name="Layer 1">
    <path class="cls-1" d="m356.55,468.48c-33.81,38.61-66.76,76.23-99.71,113.85-36.91,42.16-73.5,84.61-111.1,126.15-5.41,5.97-15.54,10.44-23.65,10.71-34.48,1.17-69.02.5-107.13.5,96.35-110.17,190.14-217.42,284.98-325.87C200.49,263.71,101.17,133.77,0,1.4,7.99.91,12.93.34,17.88.34,90.45.28,163.02.59,235.59,0c11.44-.09,18.18,3.79,24.8,12.62,51.6,68.89,103.65,137.44,155.58,206.08,2.45,3.24,5.1,6.33,8.97,11.1,27.25-31.06,53.92-61.37,80.5-91.76,36.89-42.17,73.41-84.68,110.93-126.28,5.42-6.01,15.48-10.67,23.56-10.95,34.52-1.19,69.1-.51,107.59-.51-90.12,103.06-177.65,203.15-266.42,304.66,103.83,137.33,207.4,274.33,312.94,413.92-8.32.37-13.31.78-18.31.78-70.21.04-140.43-.29-210.63.33-12,.11-19.01-4.02-26.02-13.28-55.88-73.79-112.26-147.2-168.52-220.71-4.19-5.48-8.61-10.78-14.02-17.53ZM142.83,68.6c2.19,4.51,2.7,6.22,3.71,7.55,143.47,187.77,286.96,375.52,430.61,563.15,2.63,3.43,7.11,7.51,10.86,7.65,19.76.76,39.57.36,60.49.36-1.31-3.82-1.48-5.63-2.41-6.87C503.96,452.41,361.79,264.39,219.41,76.55c-2.8-3.69-8.21-7.42-12.54-7.59-20.46-.8-40.96-.35-64.04-.35Z"/>
  </g>
</svg>