<?xml version="1.0" encoding="UTF-8"?>
<svg id="Layer_2" data-name="Layer 2" xmlns="http://www.w3.org/2000/svg" viewBox="0 0 720 505.27">
  <defs>
    <style>
      .cls-1 {
        fill: #f4f4f4;
        stroke-width: 0px;
      }
    </style>
  </defs>
  <g id="Layer_1-2" data-name="Layer 1">
    <path class="cls-1" d="m334.35,505.27c-56.73-2.71-139.3-6.17-221.8-10.91-22.51-1.29-45.12-5.14-64.02-19.87-17.71-13.8-29.49-31.12-34.5-53.18C2.72,371.53,1.27,320.83.27,270.18c-1.08-54.45.94-108.84,8.9-162.82,3.52-23.86,8.38-47.4,26.03-65.84,13.46-14.06,29.14-23.86,48.54-27.49C131.92,5,180.75,3.81,229.51,2.27c112.54-3.55,225.07-3.37,337.48,3.74,22.57,1.43,45.21,3.93,67.43,8.04,38.14,7.07,63.08,30.61,70.71,68.32,6.53,32.28,10.12,65.36,12.28,98.26,4.74,72.27,3.29,144.53-6.87,216.37-3.34,23.59-8.39,46.7-25.74,65.11-13.44,14.26-28.95,25.13-48.4,27.47-36.76,4.43-73.61,8.88-110.56,10.67-55.12,2.67-110.36,3.04-191.49,5.02Zm-45.96-145.48c62.81-36.26,124.15-71.67,186.79-107.83-63.14-36.42-124.4-71.76-186.79-107.75v215.58Z"/>
  </g>
</svg>